<svg width="512" height="512" viewBox="0 0 512 512" fill="none" xmlns="http://www.w3.org/2000/svg">
<path d="M296 109.44C315.3 114.35 333.378 123.194 349.099 135.419C364.82 147.643 377.846 162.984 387.36 180.48C397.724 197.646 404.425 216.77 407.041 236.65C409.657 256.531 408.131 276.738 402.56 296C397.431 315.186 388.562 333.17 376.463 348.919C364.365 364.668 349.274 377.872 332.059 387.774C314.843 397.675 295.841 404.078 276.144 406.615C256.447 409.153 236.443 407.775 217.28 402.56C197.969 397.692 179.826 389.012 163.917 377.033C148.008 365.053 134.654 350.014 124.64 332.8C114.316 315.618 107.639 296.495 105.024 276.621C102.409 256.747 103.912 236.548 109.44 217.28C114.32 197.803 123.142 179.533 135.361 163.599C147.579 147.665 162.935 134.406 180.48 124.64C197.646 114.276 216.77 107.575 236.65 104.959C256.531 102.343 276.738 103.869 296 109.44ZM242.64 46C242.661 42.2934 244.143 38.7447 246.764 36.1237C249.385 33.5027 252.933 32.021 256.64 32C260.134 32.3022 263.385 33.912 265.743 36.5076C268.102 39.1031 269.393 42.4932 269.36 46V67.52C269.08 70.7768 267.644 73.8259 265.311 76.1152C262.977 78.4045 259.902 79.7826 256.64 80C253.133 80.0332 249.743 78.7415 247.148 76.3833C244.552 74.025 242.942 70.7739 242.64 67.28V46ZM139.84 80C138.94 78.5832 138.332 77.0003 138.054 75.3448C137.776 73.6893 137.832 71.9948 138.22 70.3615C138.608 68.7282 139.319 67.1892 140.312 65.8355C141.305 64.4818 142.559 63.3408 144 62.48C147.216 60.725 150.982 60.2694 154.524 61.2069C158.066 62.1444 161.113 64.4037 163.04 67.52L173.2 85.28C174.845 88.4826 175.224 92.1875 174.26 95.6568C173.297 99.126 171.061 102.105 168 104C166.511 104.87 164.863 105.43 163.152 105.647C161.442 105.864 159.705 105.734 158.046 105.263C156.388 104.792 154.841 103.991 153.5 102.908C152.158 101.825 151.05 100.482 150.24 98.96L139.84 80ZM67.84 162.48C64.8111 160.615 62.5845 157.69 61.5937 154.274C60.6029 150.858 60.9188 147.196 62.48 144C63.3408 142.559 64.4818 141.305 65.8355 140.312C67.1892 139.319 68.7282 138.608 70.3615 138.22C71.9948 137.832 73.6893 137.776 75.3448 138.054C77.0003 138.332 78.5832 138.94 80 139.84L99.04 150C100.588 150.815 101.953 151.939 103.05 153.302C104.147 154.665 104.953 156.239 105.417 157.926C105.882 159.613 105.996 161.377 105.753 163.11C105.509 164.843 104.912 166.507 104 168C102.086 171.13 99.0442 173.406 95.5015 174.359C91.9587 175.311 88.1854 174.868 84.96 173.12L67.84 162.48ZM46 269.36C42.4932 269.393 39.1031 268.102 36.5076 265.743C33.912 263.385 32.3022 260.134 32 256.64C32.021 252.933 33.5027 249.385 36.1237 246.764C38.7447 244.143 42.2934 242.661 46 242.64H67.52C70.9707 242.999 74.1631 244.633 76.4717 247.223C78.7802 249.812 80.0385 253.171 80 256.64C79.7755 259.94 78.3633 263.046 76.0248 265.385C73.6862 267.723 70.5796 269.136 67.28 269.36H46ZM80.24 373.36C78.732 374.218 77.0653 374.761 75.3412 374.955C73.617 375.149 71.8713 374.991 70.2102 374.49C68.5492 373.988 67.0073 373.155 65.6785 372.039C64.3496 370.923 63.2614 369.549 62.48 368C60.725 364.784 60.2694 361.018 61.2069 357.476C62.1444 353.934 64.4037 350.887 67.52 348.96L85.28 338.8C88.4826 337.155 92.1875 336.776 95.6568 337.74C99.126 338.703 102.105 340.939 104 344C104.87 345.489 105.43 347.137 105.647 348.848C105.864 350.558 105.734 352.295 105.263 353.954C104.792 355.612 103.991 357.159 102.908 358.5C101.825 359.842 100.482 360.95 98.96 361.76L80.24 373.36ZM162.72 445.36C160.647 448.326 157.507 450.374 153.957 451.075C150.408 451.776 146.724 451.075 143.68 449.12C142.295 448.256 141.095 447.125 140.151 445.794C139.207 444.462 138.536 442.956 138.179 441.363C137.822 439.77 137.785 438.122 138.07 436.515C138.355 434.908 138.957 433.373 139.84 432L150 412.96C151.967 410.17 154.922 408.233 158.264 407.542C161.607 406.851 165.088 407.458 168 409.239C170.912 411.021 173.036 413.844 173.943 417.135C174.849 420.426 174.469 423.939 172.88 426.96L162.72 445.36ZM269.36 466.88C269.23 470.25 267.86 473.454 265.512 475.875C263.164 478.297 260.005 479.766 256.64 480C253.133 480.033 249.743 478.742 247.148 476.383C244.552 474.025 242.942 470.774 242.64 467.28V445.76C242.723 442.095 244.232 438.608 246.847 436.038C249.461 433.469 252.974 432.02 256.64 432C260.134 432.302 263.385 433.912 265.743 436.508C268.102 439.103 269.393 442.493 269.36 446V466.88ZM373.36 431.36C374.337 432.87 374.975 434.573 375.233 436.353C375.49 438.132 375.36 439.946 374.851 441.671C374.342 443.396 373.466 444.99 372.284 446.345C371.101 447.699 369.64 448.782 368 449.52C364.956 451.475 361.272 452.176 357.723 451.475C354.173 450.774 351.033 448.726 348.96 445.76L338.8 426.72C337.211 423.699 336.831 420.186 337.737 416.895C338.644 413.604 340.768 410.781 343.68 408.999C346.592 407.218 350.073 406.611 353.416 407.302C356.758 407.993 359.713 409.93 361.68 412.72L373.36 431.36ZM445.36 348.88C448.413 350.892 450.558 354.02 451.335 357.593C452.112 361.166 451.461 364.901 449.52 368C448.746 369.556 447.655 370.933 446.318 372.043C444.98 373.153 443.426 373.971 441.754 374.446C440.082 374.92 438.33 375.04 436.609 374.798C434.888 374.556 433.236 373.957 431.76 373.04L412.72 361.68C409.93 359.713 407.993 356.758 407.302 353.416C406.611 350.073 407.218 346.592 408.999 343.68C410.781 340.768 413.604 338.644 416.895 337.737C420.186 336.831 423.699 337.211 426.72 338.8L445.36 348.88ZM466.88 242.24C470.516 242.447 473.926 244.071 476.379 246.763C478.831 249.455 480.131 253.001 480 256.64C479.776 259.94 478.363 263.046 476.025 265.385C473.686 267.723 470.58 269.136 467.28 269.36H445.76C442.295 269.333 438.964 268.014 436.419 265.662C433.874 263.31 432.299 260.093 432 256.64C432.021 252.933 433.503 249.385 436.124 246.764C438.745 244.143 442.293 242.661 446 242.64L466.88 242.24ZM432 139.84C433.394 138.852 434.979 138.165 436.653 137.823C438.328 137.481 440.055 137.49 441.725 137.851C443.395 138.213 444.972 138.917 446.356 139.921C447.739 140.924 448.898 142.204 449.76 143.68C451.715 146.724 452.416 150.408 451.715 153.957C451.014 157.507 448.966 160.647 446 162.72L426.96 172.88C423.939 174.469 420.426 174.849 417.135 173.943C413.844 173.036 411.021 170.912 409.239 168C407.458 165.088 406.851 161.607 407.542 158.264C408.233 154.922 410.17 151.967 412.96 150L432 139.84ZM349.52 67.84C351.385 64.8111 354.31 62.5845 357.726 61.5937C361.142 60.6029 364.804 60.9188 368 62.48C369.517 63.2627 370.863 64.3411 371.957 65.6516C373.051 66.962 373.872 68.4782 374.371 70.1107C374.871 71.7432 375.039 73.4592 374.865 75.1575C374.691 76.8559 374.18 78.5024 373.36 80L362 99.04C361.185 100.588 360.061 101.953 358.698 103.05C357.335 104.147 355.761 104.953 354.074 105.417C352.387 105.882 350.623 105.996 348.89 105.753C347.157 105.509 345.493 104.912 344 104C340.87 102.086 338.594 99.0442 337.641 95.5015C336.689 91.9587 337.132 88.1854 338.88 84.96L349.52 67.84Z" fill="#050505"/>
</svg>
