<svg width="512" height="512" viewBox="0 0 512 512" fill="none" xmlns="http://www.w3.org/2000/svg">
<path fill-rule="evenodd" clip-rule="evenodd" d="M406.72 347.6C409.21 348.155 411.667 348.85 414.08 349.68C412 349.68 409.84 348.64 406.72 348.64V347.6ZM216 206.32C234.774 209.308 252.647 216.441 268.32 227.2C287.293 240.51 302.461 258.545 312.32 279.52L319.6 278.48C341.357 278.466 362.311 286.699 378.24 301.52C384.638 306.417 390.065 312.468 394.24 319.36C393.2 317.2 391.12 314.08 390.08 312L391.12 313.04C394.564 309.403 397.28 305.139 399.12 300.48C404.169 292.354 408.021 283.544 410.56 274.32C414.148 261.206 415.077 247.507 413.291 234.029C411.505 220.551 407.04 207.566 400.16 195.84C386.359 172.199 363.794 154.951 337.36 147.84C324.404 144.227 310.849 143.293 297.52 145.095C284.192 146.897 271.371 151.397 259.84 158.32C239.927 168.548 224.343 185.579 215.92 206.32H216ZM320 300.48C321.04 303.6 321.04 306.8 322.08 308.48C323.246 316.11 323.94 323.805 324.16 331.52C323.981 337.833 323.286 344.121 322.08 350.32C321.191 356.713 319.8 363.026 317.92 369.2C317.642 370.653 317.044 372.025 316.168 373.216C315.292 374.407 314.161 375.388 312.857 376.086C311.553 376.784 310.11 377.181 308.633 377.249C307.156 377.318 305.682 377.055 304.32 376.48C302.915 376.116 301.6 375.467 300.457 374.573C299.315 373.679 298.369 372.559 297.678 371.283C296.987 370.007 296.567 368.602 296.444 367.156C296.32 365.71 296.496 364.255 296.96 362.88C299.056 357.805 300.143 352.371 300.16 346.88C301.378 341.628 302.074 336.269 302.24 330.88C302.061 324.541 301.365 318.226 300.16 312C299.189 306.567 297.798 301.218 296 296C294.96 294.96 294.96 294.96 294.96 293.92C287.6 274.144 274.01 257.297 256.24 245.92C239.08 233.785 218.616 227.196 197.6 227.04C170.862 226.848 145.077 236.961 125.6 255.28C106.913 273.726 95.4232 298.237 93.1996 324.4L92.1596 334.88H82.2396C75.5257 334.963 68.9007 336.427 62.7763 339.179C56.652 341.932 51.1593 345.914 46.6396 350.88C41.8189 355.406 38.0193 360.908 35.4947 367.02C32.9701 373.131 31.7785 379.711 31.9996 386.32C32.4286 399.563 37.6277 412.206 46.6396 421.92C51.451 426.695 57.175 430.453 63.47 432.968C69.7651 435.483 76.5022 436.705 83.2796 436.56C185.84 436.56 295.76 432.4 398.32 436.56C402.693 436.609 407.024 435.695 411.006 433.884C414.987 432.073 418.522 429.409 421.36 426.08C424.543 423.18 427.042 419.608 428.674 415.623C430.307 411.638 431.033 407.34 430.8 403.04C430.907 398.612 430.126 394.208 428.505 390.086C426.884 385.964 424.454 382.208 421.36 379.04C414.686 373.232 406.203 369.924 397.36 369.68H387.92L386.88 360C384.568 343.391 376.396 328.155 363.84 317.04C351.482 306.786 336.051 300.957 320 300.48Z" fill="#050505"/>
<path d="M453.84 314.08C455.892 315.547 457.308 317.741 457.8 320.216C458.292 322.691 457.823 325.26 456.487 327.4C455.152 329.541 453.051 331.092 450.612 331.739C448.174 332.385 445.58 332.078 443.36 330.88L429.76 323.52C428.597 322.893 427.582 322.025 426.781 320.975C425.981 319.924 425.414 318.714 425.119 317.427C424.824 316.139 424.806 314.804 425.069 313.509C425.331 312.215 425.867 310.991 426.64 309.92C427.247 308.742 428.082 307.696 429.097 306.843C430.112 305.991 431.287 305.349 432.552 304.954C433.818 304.56 435.149 304.421 436.469 304.545C437.789 304.67 439.07 305.056 440.24 305.68L453.84 314.08ZM170.16 173.84C167.818 172.311 166.108 169.988 165.343 167.298C164.579 164.608 164.812 161.732 166 159.2C167.427 157.029 169.633 155.487 172.162 154.891C174.692 154.296 177.354 154.693 179.6 156L194.24 164.4C196.221 165.863 197.582 168.015 198.053 170.432C198.525 172.849 198.073 175.355 196.787 177.456C195.5 179.556 193.474 181.097 191.106 181.776C188.739 182.454 186.203 182.22 184 181.12L170.16 173.84ZM224.56 112C223.362 109.78 223.054 107.186 223.701 104.747C224.347 102.309 225.899 100.208 228.039 98.8724C230.18 97.5371 232.749 97.0675 235.224 97.5594C237.698 98.0513 239.892 99.4675 241.36 101.52L249.36 115.12C250.358 116.251 251.096 117.588 251.522 119.035C251.947 120.482 252.051 122.005 251.824 123.497C251.598 124.988 251.047 126.412 250.211 127.668C249.375 128.923 248.273 129.981 246.984 130.765C245.696 131.549 244.25 132.041 242.751 132.206C241.251 132.371 239.734 132.205 238.305 131.72C236.876 131.236 235.571 130.444 234.482 129.4C233.393 128.356 232.545 127.087 232 125.68L224.56 112ZM302.08 85.84C301.959 84.5273 302.109 83.2038 302.522 81.9518C302.935 80.6999 303.601 79.5463 304.479 78.5631C305.357 77.5799 306.428 76.7881 307.626 76.237C308.824 75.6859 310.122 75.3874 311.44 75.36C312.84 75.2655 314.245 75.4718 315.559 75.9651C316.874 76.4583 318.067 77.2271 319.06 78.2198C320.053 79.2124 320.821 80.406 321.315 81.7204C321.808 83.0347 322.014 84.4394 321.92 85.84V101.84C321.837 104.564 320.696 107.148 318.739 109.044C316.783 110.941 314.165 112.001 311.44 112C308.844 111.758 306.437 110.543 304.701 108.599C302.964 106.655 302.028 104.126 302.08 101.52V85.84ZM382.64 101.84C384.154 99.9993 386.28 98.7654 388.63 98.3639C390.979 97.9625 393.395 98.4203 395.434 99.6537C397.474 100.887 399.001 102.814 399.736 105.081C400.472 107.348 400.367 109.804 399.44 112L392 125.68C390.482 128.035 388.159 129.756 385.464 130.522C382.77 131.288 379.889 131.045 377.36 129.84C375.111 128.226 373.545 125.831 372.968 123.124C372.391 120.416 372.844 117.591 374.24 115.2L382.64 101.84ZM443.36 156.24C444.455 155.53 445.682 155.049 446.968 154.826C448.254 154.602 449.572 154.641 450.842 154.94C452.112 155.239 453.309 155.792 454.361 156.565C455.412 157.338 456.296 158.316 456.96 159.44C457.752 160.595 458.301 161.899 458.573 163.272C458.846 164.646 458.836 166.06 458.544 167.43C458.252 168.8 457.684 170.096 456.876 171.239C456.067 172.382 455.034 173.349 453.84 174.08L440.24 181.36C439.153 182.085 437.93 182.58 436.645 182.815C435.36 183.051 434.041 183.022 432.768 182.729C431.495 182.437 430.294 181.889 429.241 181.117C428.187 180.345 427.302 179.366 426.64 178.24C425.812 177.188 425.23 175.965 424.937 174.659C424.644 173.353 424.647 171.998 424.946 170.694C425.246 169.389 425.833 168.168 426.666 167.121C427.499 166.073 428.556 165.226 429.76 164.64L443.36 156.24ZM469.52 233.76C470.899 233.669 472.282 233.869 473.579 234.348C474.876 234.828 476.057 235.574 477.046 236.541C478.034 237.507 478.808 238.67 479.317 239.956C479.826 241.241 480.059 242.619 480 244C479.972 245.318 479.674 246.616 479.123 247.814C478.572 249.011 477.78 250.083 476.797 250.961C475.813 251.839 474.66 252.505 473.408 252.918C472.156 253.331 470.832 253.481 469.52 253.36H453.52C450.914 253.412 448.385 252.475 446.441 250.739C444.497 249.003 443.282 246.595 443.04 244C443.04 241.221 444.144 238.555 446.109 236.59C448.075 234.624 450.74 233.52 453.52 233.52L469.52 233.76Z" fill="#050505"/>
</svg>
