<svg width="512" height="512" viewBox="0 0 512 512" fill="none" xmlns="http://www.w3.org/2000/svg">
<path d="M471.04 215.36C473.508 215.581 475.802 216.726 477.463 218.565C479.124 220.404 480.03 222.802 480 225.28C480 226.453 479.768 227.614 479.316 228.697C478.865 229.779 478.204 230.762 477.371 231.588C476.538 232.413 475.549 233.066 474.463 233.507C473.376 233.949 472.213 234.171 471.04 234.16H456C454.827 234.171 453.664 233.949 452.577 233.507C451.491 233.066 450.502 232.413 449.669 231.588C448.836 230.762 448.175 229.779 447.724 228.697C447.272 227.614 447.04 226.453 447.04 225.28C447.01 222.802 447.916 220.404 449.577 218.565C451.238 216.726 453.532 215.581 456 215.36H471.04ZM247.04 104C246.365 103.051 245.906 101.967 245.694 100.823C245.481 99.6784 245.521 98.5015 245.811 97.3741C246.1 96.2468 246.632 95.1962 247.37 94.2956C248.107 93.395 249.032 92.6662 250.08 92.16C252.187 90.8696 254.716 90.4567 257.124 91.0102C259.532 91.5636 261.628 93.0391 262.96 95.12L269.84 108C271.11 110.112 271.511 112.635 270.959 115.037C270.407 117.439 268.945 119.534 266.88 120.88C264.631 121.999 262.037 122.208 259.638 121.463C257.239 120.717 255.22 119.076 254 116.88L247.04 104ZM197.52 160.56C195.398 159.372 193.835 157.389 193.175 155.049C192.515 152.709 192.812 150.202 194 148.08C195.188 145.958 197.171 144.395 199.511 143.735C201.851 143.075 204.358 143.372 206.48 144.56L219.36 151.52C221.394 152.892 222.831 154.985 223.38 157.376C223.929 159.767 223.551 162.278 222.32 164.4C221.871 165.506 221.18 166.498 220.297 167.303C219.415 168.107 218.364 168.704 217.22 169.049C216.077 169.394 214.872 169.479 213.691 169.298C212.511 169.116 211.386 168.673 210.4 168L197.52 160.56ZM317.52 80.56C317.603 78.2608 318.575 76.0835 320.231 74.4867C321.888 72.89 324.099 71.9985 326.4 72C328.807 71.8688 331.167 72.6955 332.966 74.2995C334.765 75.9034 335.856 78.1542 336 80.56V95.44C335.856 97.8457 334.765 100.097 332.966 101.7C331.167 103.304 328.807 104.131 326.4 104C325.227 104.011 324.064 103.789 322.977 103.347C321.891 102.906 320.902 102.253 320.069 101.428C319.236 100.602 318.575 99.6194 318.124 98.5368C317.672 97.4542 317.44 96.2929 317.44 95.12L317.52 80.56ZM390.88 95.44C392.212 93.3591 394.308 91.8836 396.716 91.3302C399.124 90.7767 401.653 91.1896 403.76 92.48C404.748 93.0062 405.614 93.7338 406.303 94.6158C406.992 95.4977 407.488 96.5144 407.759 97.6001C408.031 98.6858 408.071 99.8164 407.879 100.919C407.686 102.021 407.264 103.071 406.64 104L400 117.2C398.739 119.354 396.719 120.958 394.336 121.698C391.953 122.438 389.379 122.261 387.12 121.2C385.06 119.852 383.59 117.77 383.01 115.378C382.431 112.985 382.785 110.461 384 108.32L390.88 95.44ZM447.36 144.96C449.482 143.772 451.989 143.475 454.329 144.135C456.669 144.795 458.652 146.358 459.84 148.48C461.028 150.602 461.325 153.109 460.665 155.449C460.005 157.789 458.442 159.772 456.32 160.96L443.36 168C442.415 168.692 441.329 169.168 440.179 169.394C439.03 169.62 437.845 169.59 436.708 169.308C435.571 169.026 434.51 168.497 433.599 167.76C432.689 167.022 431.952 166.094 431.44 165.04C430.681 164.021 430.153 162.849 429.89 161.606C429.627 160.363 429.637 159.078 429.918 157.839C430.199 156.6 430.746 155.436 431.519 154.428C432.293 153.42 433.276 152.592 434.4 152L447.36 144.96ZM248 207.44H246.96C242.442 206.23 237.796 205.559 233.12 205.44C227.83 204.602 222.472 204.281 217.12 204.48C187.253 204.641 158.545 216.053 136.719 236.441C114.893 256.828 101.553 284.694 99.36 314.48V324.4H89.52C74.3086 324.525 59.7392 330.547 48.88 341.2C38.3337 352.554 32.3265 367.387 32 382.88C32.0518 390.481 33.6098 397.997 36.5839 404.993C39.558 411.988 43.8892 418.325 49.3272 423.636C54.7651 428.948 61.202 433.129 68.2656 435.938C75.3292 438.746 82.8795 440.127 90.48 440C207.44 440 325.36 438.08 442.48 440C447.546 440.144 452.581 439.155 457.217 437.107C461.853 435.059 465.974 432.002 469.28 428.16C472.738 424.681 475.467 420.547 477.308 416C479.149 411.453 480.064 406.585 480 401.68C480.127 394.745 478.416 387.899 475.04 381.84C471.539 375.235 465.897 370.016 459.04 367.04L450.08 362.08L455.04 353.12C457.774 347.343 460.1 341.382 462 335.28C463.14 329.073 463.809 322.788 464 316.48C464.052 305.774 461.954 295.167 457.832 285.287C453.709 275.406 447.646 266.454 440 258.96C424.782 243.676 404.128 235.047 382.56 234.96H372L361.04 236.96L360 226.24C357.744 213.184 351.08 201.297 341.12 192.56C331.523 183.413 318.695 178.437 305.44 178.72C296.121 178.912 286.973 181.268 278.72 185.6C275.195 187.593 271.873 189.924 268.8 192.56C292.012 202.157 312.389 217.523 328 237.2C346.557 261.74 356.662 291.634 356.8 322.4C356.614 329.371 355.945 336.321 354.8 343.2C353.977 350.222 352.64 357.174 350.8 364C349.614 366.55 347.603 368.624 345.091 369.887C342.579 371.151 339.714 371.529 336.96 370.96C334.541 369.882 332.547 368.034 331.288 365.704C330.029 363.375 329.576 360.694 330 358.08C331.788 352.245 333.126 346.28 334 340.24C335.14 334.356 335.808 328.39 336 322.4C336.052 296.296 327.317 270.935 311.2 250.4C295.227 229.735 273.092 214.689 248 207.44ZM241.04 184.64C242.599 185.334 244.295 185.662 246 185.6C252.913 178.544 260.556 172.242 268.8 166.8C280.087 160.836 292.674 157.758 305.44 157.84C323.753 157.707 341.451 164.444 355.04 176.72C366.493 186.714 374.826 199.795 379.04 214.4H383.04C396.816 213.897 410.517 216.637 423.04 222.4C420.809 207.032 415.001 192.403 406.084 179.689C397.168 166.976 385.39 156.533 371.701 149.202C358.012 141.871 342.792 137.856 327.268 137.48C311.744 137.105 296.348 140.379 282.32 147.04C265.894 156.085 251.939 169.023 241.68 184.72L241.04 184.64Z" fill="#050505"/>
</svg>
