<svg width="512" height="512" viewBox="0 0 512 512" fill="none" xmlns="http://www.w3.org/2000/svg">
<path d="M268.88 139.04C286.673 146.162 302.959 156.585 316.88 169.76C333.218 186.363 345.128 206.8 351.52 229.2C357.593 229.228 363.62 230.255 369.36 232.24C375.574 233.289 381.591 235.286 387.2 238.16C397.454 242.777 406.633 249.479 414.154 257.84C421.674 266.2 427.371 276.036 430.88 286.72C434.625 297.341 436.201 308.605 435.514 319.846C434.827 331.086 431.891 342.075 426.88 352.16C426.322 353.416 425.515 354.546 424.508 355.482C423.501 356.417 422.315 357.138 421.021 357.602C419.727 358.066 418.353 358.262 416.981 358.179C415.609 358.096 414.268 357.736 413.04 357.12C410.624 355.836 408.772 353.702 407.841 351.13C406.909 348.558 406.966 345.732 408 343.2C411.875 335.594 414.139 327.27 414.648 318.749C415.158 310.228 413.902 301.693 410.96 293.68C405.206 277.673 393.48 264.514 378.24 256.96C373.747 254.919 369.09 253.26 364.32 252C361.733 251.199 359.022 250.874 356.32 251.04C357.184 256.945 357.532 262.914 357.36 268.88C357.173 275.851 356.505 282.801 355.36 289.68C354.537 296.702 353.2 303.654 351.36 310.48C350.174 313.03 348.162 315.104 345.65 316.367C343.138 317.631 340.273 318.009 337.52 317.44C335.02 316.289 332.964 314.354 331.665 311.928C330.365 309.502 329.893 306.719 330.32 304C332.212 298.521 333.552 292.866 334.32 287.12C335.373 281.096 335.935 274.996 336 268.88C335.751 237.429 323.437 207.274 301.6 184.64C288.531 171.568 272.586 161.733 255.04 155.92L248 153.92L233.12 150.96C228.16 150.96 223.2 149.92 217.12 149.92C187.265 150.268 158.662 161.967 137.12 182.64C114.884 202.877 101.375 230.957 99.4396 260.96V269.84L89.5996 270.88C74.3153 271.069 59.7073 277.211 48.8796 288C38.0677 298.971 32.0068 313.757 32.0068 329.16C32.0068 344.564 38.0677 359.349 48.8796 370.32C54.3638 375.724 60.8626 379.991 68.002 382.874C75.1413 385.757 82.7804 387.2 90.4796 387.12C207.44 387.12 325.36 385.2 442.48 387.12C447.51 387.032 452.472 385.939 457.075 383.905C461.677 381.872 465.827 378.94 469.28 375.28C476.258 367.987 480.106 358.253 480 348.16C479.997 340.934 478.298 333.81 475.04 327.36C471.209 321.252 465.636 316.431 459.04 313.52L450.08 308.56L455.04 299.6C457.773 293.823 460.099 287.862 462 281.76C463.14 275.553 463.809 269.268 464 262.96C464.051 252.254 461.954 241.647 457.831 231.767C453.709 221.886 447.645 212.934 440 205.44C424.782 190.157 404.127 181.527 382.56 181.44H372L361.04 184L360 172.72C357.987 159.579 351.279 147.614 341.12 139.04C331.523 129.893 318.695 124.917 305.44 125.2C296.058 124.889 286.784 127.277 278.72 132.08C275.195 134.073 271.873 136.404 268.8 139.04H268.88Z" fill="#050505"/>
</svg>
