<svg width="512" height="512" viewBox="0 0 512 512" fill="none" xmlns="http://www.w3.org/2000/svg">
<path d="M330.32 370.64C331.515 368.178 333.549 366.222 336.055 365.122C338.562 364.023 341.378 363.852 344 364.64C346.573 365.771 348.618 367.84 349.718 370.427C350.818 373.013 350.89 375.922 349.92 378.56L337.04 412.24C336.071 414.698 334.19 416.686 331.789 417.789C329.389 418.892 326.656 419.025 324.16 418.16C322.775 417.736 321.492 417.036 320.385 416.102C319.279 415.168 318.374 414.02 317.723 412.727C317.073 411.433 316.691 410.022 316.601 408.577C316.511 407.132 316.715 405.684 317.2 404.32L330.32 370.64ZM258 370.64C259.116 368.033 261.193 365.956 263.799 364.839C266.406 363.722 269.342 363.651 272 364.64C274.575 365.771 276.625 367.836 277.739 370.419C278.852 373.002 278.945 375.911 278 378.56L254 440.96C253.543 442.194 252.847 443.327 251.952 444.292C251.058 445.258 249.982 446.038 248.786 446.588C247.59 447.137 246.297 447.446 244.982 447.496C243.666 447.546 242.354 447.337 241.12 446.88C239.885 446.423 238.753 445.727 237.787 444.833C236.822 443.938 236.042 442.862 235.492 441.666C234.942 440.47 234.634 439.177 234.583 437.862C234.533 436.547 234.743 435.234 235.2 434L258 370.64ZM174.72 370.64C175.176 369.245 175.915 367.958 176.889 366.861C177.864 365.763 179.054 364.876 180.385 364.257C181.716 363.638 183.16 363.298 184.627 363.26C186.095 363.222 187.555 363.485 188.916 364.034C190.278 364.583 191.512 365.406 192.542 366.452C193.573 367.497 194.378 368.743 194.907 370.113C195.436 371.482 195.678 372.946 195.618 374.412C195.559 375.879 195.198 377.318 194.56 378.64L181.68 412.32C180.711 414.778 178.83 416.766 176.429 417.869C174.029 418.972 171.296 419.105 168.8 418.24C167.409 417.826 166.118 417.132 165.005 416.2C163.893 415.269 162.983 414.119 162.331 412.823C161.679 411.527 161.299 410.111 161.215 408.662C161.13 407.214 161.343 405.763 161.84 404.4L174.72 370.64ZM268.88 78.24C286.688 85.3327 302.98 95.7592 316.88 108.96C333.251 125.538 345.166 145.984 351.52 168.4C357.588 168.401 363.616 169.401 369.359 171.36C375.578 172.437 381.594 174.46 387.2 177.36C397.467 181.956 406.658 188.651 414.182 197.015C421.705 205.378 427.393 215.225 430.88 225.92C434.627 236.526 436.205 247.778 435.518 259.006C434.83 270.234 431.893 281.21 426.88 291.28C426.322 292.536 425.515 293.666 424.508 294.602C423.501 295.537 422.315 296.258 421.021 296.722C419.727 297.186 418.353 297.382 416.981 297.299C415.609 297.216 414.268 296.856 413.04 296.24C410.63 294.971 408.78 292.851 407.848 290.293C406.916 287.734 406.97 284.921 408 282.4C411.877 274.781 414.142 266.443 414.651 257.909C415.16 249.374 413.904 240.827 410.96 232.8C405.203 216.814 393.475 203.681 378.24 196.16C373.775 194.049 369.112 192.388 364.32 191.2C361.733 190.399 359.022 190.074 356.32 190.24C357.101 196.126 357.369 202.068 357.12 208C356.926 214.971 356.257 221.92 355.12 228.8C354.289 235.821 352.952 242.772 351.12 249.6C350.663 250.966 349.941 252.228 348.996 253.315C348.051 254.402 346.902 255.292 345.613 255.935C344.324 256.577 342.921 256.96 341.484 257.06C340.048 257.161 338.605 256.977 337.24 256.52C334.481 255.597 332.203 253.616 330.905 251.013C330.262 249.724 329.88 248.321 329.779 246.885C329.679 245.448 329.863 244.006 330.32 242.64C332.213 237.188 333.553 231.56 334.32 225.84C335.347 219.947 335.909 213.982 336 208C335.747 176.574 323.432 146.445 301.6 123.84C288.506 110.781 272.571 100.924 255.04 95.04L248 93.04L233.12 90.08C228.16 90.08 223.2 89.12 217.12 89.12C187.265 89.4684 158.662 101.167 137.12 121.84C114.878 142.015 101.34 170.037 99.3595 200V208.88L89.5195 209.84C74.2901 209.952 59.7069 216.009 48.8795 226.72C38.0534 237.668 31.9814 252.443 31.9814 267.84C31.9814 283.237 38.0534 298.012 48.8795 308.96C54.3493 314.39 60.8436 318.678 67.9852 321.576C75.1267 324.474 82.7729 325.923 90.4795 325.84C207.44 325.84 325.36 323.84 442.48 325.84C447.518 325.755 452.488 324.655 457.093 322.607C461.697 320.559 465.842 317.605 469.28 313.92C476.152 306.785 479.994 297.266 480 287.36C479.997 280.134 478.298 273.01 475.04 266.56C471.236 260.409 465.658 255.555 459.04 252.64L450.24 248L455.2 239.12C457.92 233.338 460.245 227.377 462.16 221.28C463.263 214.936 463.878 208.518 464 202.08C464.041 191.388 461.938 180.796 457.816 170.93C453.694 161.064 447.635 152.125 440 144.64C424.777 129.364 404.125 120.735 382.56 120.64H372L361.04 122.64L360 112C357.987 98.8595 351.279 86.8938 341.12 78.32C336.423 73.7028 330.86 70.0605 324.75 67.6028C318.641 65.1451 312.105 63.9207 305.52 64C296.13 63.713 286.856 66.1287 278.8 70.96C275.257 72.9248 271.932 75.2577 268.88 77.92V78.24Z" fill="#050505"/>
</svg>
