<svg width="512" height="512" viewBox="0 0 512 512" fill="none" xmlns="http://www.w3.org/2000/svg">
<path d="M332.32 370.64C333.289 368.18 335.166 366.187 337.562 365.07C339.959 363.954 342.693 363.8 345.2 364.64C346.572 365.09 347.841 365.81 348.93 366.759C350.019 367.707 350.907 368.865 351.541 370.163C352.175 371.461 352.543 372.873 352.621 374.315C352.7 375.757 352.489 377.201 352 378.56L339.12 412.24C337.904 414.74 335.826 416.717 333.267 417.805C330.709 418.893 327.844 419.019 325.2 418.16C322.632 417.045 320.589 414.99 319.488 412.417C318.387 409.844 318.312 406.947 319.28 404.32L332.32 370.64ZM264.96 370.64C265.419 369.313 266.146 368.095 267.097 367.061C268.047 366.027 269.2 365.2 270.483 364.631C271.767 364.061 273.154 363.762 274.558 363.751C275.962 363.74 277.353 364.019 278.645 364.569C279.937 365.118 281.102 365.928 282.068 366.947C283.034 367.966 283.78 369.173 284.26 370.493C284.739 371.813 284.943 373.217 284.856 374.618C284.77 376.02 284.397 377.389 283.76 378.64L260.96 441.04C260.486 442.383 259.74 443.613 258.768 444.653C257.796 445.693 256.619 446.521 255.312 447.085C254.005 447.648 252.595 447.935 251.171 447.928C249.747 447.92 248.341 447.618 247.04 447.04C244.601 446.024 242.636 444.124 241.538 441.721C240.441 439.318 240.291 436.589 241.12 434.08L264.96 370.64ZM121.2 370.64C122.399 368.143 124.459 366.162 127.001 365.06C129.543 363.958 132.397 363.809 135.04 364.64C137.615 365.771 139.665 367.836 140.779 370.419C141.892 373.002 141.985 375.911 141.04 378.56L118.24 440.96C117.728 442.274 116.96 443.474 115.981 444.489C115.002 445.504 113.83 446.315 112.535 446.873C111.24 447.431 109.847 447.727 108.436 447.742C107.026 447.756 105.626 447.491 104.32 446.96C101.869 445.959 99.8916 444.061 98.7916 441.653C97.6916 439.245 97.5514 436.508 98.3995 434L121.2 370.64ZM394.799 370.64C395.769 368.105 397.698 366.054 400.168 364.931C402.639 363.808 405.452 363.704 408 364.64C409.386 365.072 410.67 365.78 411.774 366.723C412.878 367.666 413.78 368.824 414.423 370.125C415.066 371.427 415.438 372.846 415.517 374.296C415.595 375.746 415.379 377.196 414.88 378.56L390.88 440.96C390.415 442.3 389.677 443.529 388.713 444.568C387.749 445.608 386.579 446.436 385.278 447C383.977 447.564 382.572 447.852 381.154 447.845C379.736 447.838 378.335 447.537 377.04 446.96C374.574 445.974 372.579 444.082 371.463 441.673C370.348 439.263 370.196 436.518 371.04 434L394.799 370.64ZM268.88 78.24C286.688 85.3326 302.98 95.7592 316.88 108.96C333.251 125.538 345.166 145.984 351.52 168.4C357.588 168.401 363.616 169.401 369.359 171.36C375.578 172.437 381.594 174.46 387.2 177.36C397.467 181.956 406.658 188.651 414.182 197.015C421.705 205.378 427.393 215.225 430.88 225.92C434.627 236.526 436.205 247.778 435.518 259.006C434.83 270.234 431.893 281.21 426.88 291.28C426.322 292.536 425.515 293.666 424.508 294.602C423.501 295.537 422.315 296.258 421.021 296.722C419.727 297.186 418.353 297.382 416.981 297.299C415.609 297.216 414.268 296.856 413.04 296.24C410.63 294.971 408.78 292.851 407.848 290.293C406.916 287.734 406.97 284.921 408 282.4C411.877 274.78 414.142 266.443 414.651 257.909C415.16 249.374 413.904 240.827 410.96 232.8C405.203 216.814 393.475 203.681 378.24 196.16C373.775 194.049 369.112 192.388 364.32 191.2C361.733 190.399 359.022 190.074 356.32 190.24C357.101 196.126 357.369 202.068 357.12 208C356.926 214.971 356.257 221.92 355.12 228.8C354.289 235.821 352.952 242.772 351.12 249.6C350.663 250.966 349.941 252.228 348.996 253.315C348.051 254.402 346.902 255.292 345.613 255.935C344.324 256.577 342.921 256.96 341.484 257.06C340.048 257.16 338.605 256.977 337.24 256.52C334.481 255.597 332.203 253.616 330.905 251.013C330.262 249.724 329.88 248.321 329.779 246.885C329.679 245.448 329.863 244.006 330.32 242.64C332.213 237.188 333.553 231.56 334.32 225.84C335.347 219.947 335.909 213.982 336 208C335.747 176.574 323.432 146.445 301.6 123.84C288.506 110.781 272.571 100.924 255.04 95.04L248 93.04L233.12 90.08C228.16 90.08 223.2 89.12 217.12 89.12C187.265 89.4683 158.662 101.167 137.12 121.84C114.878 142.014 101.34 170.037 99.3595 200V208.88L89.5195 209.84C74.2901 209.952 59.7069 216.009 48.8795 226.72C38.0534 237.668 31.9814 252.443 31.9814 267.84C31.9814 283.237 38.0534 298.012 48.8795 308.96C54.3493 314.39 60.8436 318.678 67.9852 321.576C75.1267 324.473 82.7729 325.923 90.4795 325.84C207.44 325.84 325.36 323.84 442.48 325.84C447.518 325.755 452.488 324.655 457.093 322.607C461.697 320.559 465.842 317.605 469.28 313.92C476.152 306.785 479.994 297.266 480 287.36C479.997 280.134 478.298 273.009 475.04 266.56C471.236 260.409 465.658 255.555 459.04 252.64L450.24 248L455.2 239.12C457.92 233.337 460.245 227.377 462.16 221.28C463.263 214.936 463.878 208.518 464 202.08C464.041 191.388 461.938 180.796 457.816 170.93C453.694 161.064 447.635 152.125 440 144.64C424.777 129.364 404.125 120.735 382.56 120.64H372L361.04 122.64L360 112C357.987 98.8594 351.279 86.8938 341.12 78.32C336.423 73.7028 330.86 70.0604 324.75 67.6028C318.641 65.1451 312.105 63.9206 305.52 64C296.13 63.7129 286.856 66.1287 278.8 70.96C275.257 72.9247 271.932 75.2576 268.88 77.92V78.24ZM192 370.64C192.459 369.313 193.186 368.095 194.137 367.061C195.087 366.027 196.24 365.2 197.523 364.631C198.807 364.061 200.194 363.762 201.598 363.751C203.002 363.74 204.393 364.019 205.685 364.569C206.977 365.118 208.142 365.928 209.108 366.947C210.074 367.966 210.82 369.173 211.3 370.493C211.779 371.813 211.983 373.217 211.896 374.618C211.81 376.02 211.437 377.389 210.8 378.64L197.92 412.32C197.46 413.647 196.733 414.865 195.782 415.899C194.832 416.933 193.679 417.76 192.396 418.329C191.112 418.899 189.725 419.198 188.321 419.209C186.917 419.219 185.526 418.941 184.234 418.391C182.942 417.842 181.777 417.032 180.811 416.013C179.845 414.994 179.099 413.787 178.619 412.467C178.14 411.147 177.937 409.743 178.023 408.341C178.109 406.94 178.482 405.571 179.12 404.32L192 370.64Z" fill="#050505"/>
</svg>
