<svg width="592" height="592" viewBox="0 0 592 592" fill="none" xmlns="http://www.w3.org/2000/svg">
<path d="M161.2 410.64C161.656 409.245 162.395 407.958 163.369 406.86C164.344 405.762 165.534 404.876 166.865 404.257C168.196 403.638 169.64 403.298 171.107 403.26C172.575 403.222 174.035 403.485 175.396 404.034C176.758 404.583 177.992 405.406 179.022 406.452C180.053 407.497 180.858 408.743 181.387 410.113C181.916 411.482 182.158 412.946 182.098 414.412C182.039 415.879 181.678 417.318 181.04 418.64L157.04 481.04C156.583 482.274 155.887 483.407 154.992 484.372C154.098 485.338 153.022 486.118 151.826 486.668C150.63 487.217 149.337 487.526 148.022 487.576C146.706 487.626 145.394 487.417 144.16 486.96C142.925 486.503 141.793 485.807 140.827 484.913C139.862 484.018 139.082 482.942 138.532 481.746C137.982 480.55 137.674 479.257 137.623 477.942C137.573 476.627 137.783 475.314 138.24 474.08L161.2 410.64ZM304 410.64C305.201 408.125 307.274 406.131 309.834 405.028C312.393 403.925 315.266 403.787 317.92 404.64C320.493 405.771 322.538 407.84 323.638 410.427C324.738 413.013 324.81 415.922 323.84 418.56L301.04 480.96C300.528 482.274 299.76 483.474 298.781 484.489C297.802 485.504 296.63 486.315 295.335 486.873C294.04 487.431 292.647 487.727 291.236 487.742C289.826 487.756 288.426 487.491 287.12 486.96C284.681 485.944 282.716 484.044 281.618 481.641C280.521 479.238 280.371 476.509 281.2 474L304 410.64ZM372.32 410.64C372.779 409.313 373.506 408.095 374.457 407.061C375.407 406.027 376.56 405.2 377.843 404.631C379.127 404.061 380.514 403.762 381.918 403.751C383.322 403.74 384.713 404.019 386.005 404.569C387.297 405.118 388.462 405.928 389.428 406.947C390.394 407.966 391.14 409.173 391.62 410.493C392.099 411.813 392.303 413.217 392.216 414.618C392.13 416.02 391.757 417.389 391.12 418.64L378.24 452.32C377.78 453.647 377.053 454.865 376.102 455.899C375.152 456.933 373.999 457.76 372.716 458.329C371.432 458.899 370.045 459.198 368.641 459.209C367.237 459.219 365.846 458.941 364.554 458.391C363.262 457.842 362.097 457.032 361.131 456.013C360.165 454.994 359.419 453.787 358.939 452.467C358.46 451.147 358.257 449.743 358.343 448.341C358.429 446.94 358.802 445.571 359.44 444.32L372.32 410.64ZM434.799 410.64C435.259 409.313 435.986 408.095 436.937 407.061C437.887 406.027 439.04 405.2 440.323 404.631C441.607 404.061 442.994 403.762 444.398 403.751C445.802 403.74 447.193 404.019 448.485 404.569C449.777 405.118 450.942 405.928 451.908 406.947C452.874 407.966 453.62 409.173 454.1 410.493C454.579 411.813 454.783 413.217 454.696 414.618C454.61 416.02 454.237 417.389 453.6 418.64L430.799 481.04C430.335 482.38 429.597 483.609 428.633 484.648C427.669 485.688 426.499 486.516 425.198 487.08C423.897 487.644 422.492 487.932 421.074 487.925C419.656 487.918 418.255 487.617 416.96 487.04C414.494 486.054 412.499 484.162 411.383 481.753C410.268 479.343 410.116 476.598 410.96 474.08L434.799 410.64ZM308.88 118.24C326.688 125.333 342.98 135.759 356.88 148.96C373.251 165.538 385.166 185.984 391.52 208.4C397.588 208.401 403.616 209.401 409.359 211.36C415.578 212.437 421.594 214.46 427.2 217.36C437.467 221.956 446.658 228.651 454.182 237.015C461.705 245.378 467.393 255.225 470.88 265.92C474.627 276.526 476.205 287.778 475.518 299.006C474.83 310.234 471.893 321.21 466.88 331.28C466.322 332.536 465.515 333.666 464.508 334.602C463.501 335.537 462.315 336.258 461.021 336.722C459.727 337.186 458.353 337.382 456.981 337.299C455.609 337.216 454.268 336.856 453.04 336.24C450.63 334.971 448.78 332.851 447.848 330.293C446.916 327.734 446.97 324.921 448 322.4C451.877 314.78 454.142 306.443 454.651 297.909C455.16 289.374 453.904 280.827 450.96 272.8C445.203 256.814 433.475 243.681 418.24 236.16C413.775 234.049 409.112 232.388 404.32 231.2C401.733 230.399 399.022 230.074 396.32 230.24C397.101 236.126 397.369 242.068 397.12 248C396.926 254.971 396.257 261.92 395.12 268.8C394.289 275.821 392.952 282.772 391.12 289.6C390.663 290.966 389.941 292.228 388.996 293.315C388.051 294.402 386.902 295.292 385.613 295.935C384.324 296.577 382.921 296.96 381.484 297.06C380.048 297.16 378.605 296.977 377.24 296.52C374.481 295.597 372.203 293.616 370.905 291.013C370.262 289.724 369.88 288.321 369.779 286.885C369.679 285.448 369.863 284.006 370.32 282.64C372.213 277.188 373.553 271.56 374.32 265.84C375.347 259.947 375.909 253.982 376 248C375.747 216.574 363.432 186.445 341.6 163.84C328.506 150.781 312.571 140.924 295.04 135.04L288 133.04L273.12 130.08C268.16 130.08 263.2 129.12 257.12 129.12C227.265 129.468 198.662 141.167 177.12 161.84C154.878 182.014 141.34 210.037 139.36 240V248.88L129.52 249.84C114.29 249.952 99.7069 256.009 88.8795 266.72C78.0534 277.668 71.9814 292.443 71.9814 307.84C71.9814 323.237 78.0534 338.012 88.8795 348.96C94.3493 354.39 100.844 358.678 107.985 361.576C115.127 364.473 122.773 365.923 130.48 365.84H225.6L239.52 331.12H197.84C193.442 330.57 189.121 329.523 184.96 328C181.247 326.251 177.917 323.785 175.162 320.743C172.406 317.702 170.28 314.146 168.904 310.279C167.528 306.413 166.931 302.312 167.147 298.214C167.362 294.116 168.386 290.101 170.16 286.4L224 168C227.416 160.383 233.717 154.435 241.519 151.464C245.382 149.993 249.497 149.298 253.628 149.417C257.76 149.537 261.828 150.469 265.6 152.16C269.371 153.851 272.773 156.269 275.61 159.275C278.447 162.281 280.664 165.816 282.135 169.679C283.606 173.542 284.302 177.657 284.182 181.789C284.063 185.921 283.131 189.988 281.44 193.76L247.76 268.08H285.44C289.669 267.981 293.874 268.742 297.801 270.315C301.728 271.888 305.295 274.242 308.286 277.233C311.278 280.225 313.631 283.792 315.204 287.718C316.778 291.645 317.538 295.851 317.44 300.08C317.407 304.538 316.396 308.935 314.48 312.96L293.68 365.52C357.12 365.52 420.56 365.52 482.96 366.48C487.998 366.395 492.968 365.295 497.573 363.247C502.177 361.199 506.322 358.245 509.76 354.56C516.612 347.19 520.29 337.419 520 327.36C519.997 320.134 518.298 313.009 515.04 306.56C511.236 300.409 505.658 295.555 499.04 292.64L490.24 288L495.2 279.12C497.92 273.337 500.245 267.377 502.16 261.28C503.263 254.936 503.878 248.518 504 242.08C504.041 231.388 501.938 220.796 497.816 210.93C493.694 201.064 487.635 192.125 480 184.64C464.777 169.364 444.125 160.735 422.56 160.64H412L401.04 162.64L400 152C397.987 138.859 391.279 126.894 381.12 118.32C376.423 113.703 370.86 110.06 364.75 107.603C358.641 105.145 352.105 103.921 345.52 104C336.13 103.713 326.856 106.129 318.8 110.96C315.257 112.925 311.932 115.258 308.88 117.92V118.24Z" fill="#050505"/>
<path d="M242.48 176.72C243.499 174.149 245.486 172.079 248.014 170.957C250.543 169.836 253.41 169.75 256 170.72C257.245 171.303 258.361 172.127 259.285 173.144C260.208 174.161 260.921 175.352 261.383 176.646C261.844 177.94 262.044 179.313 261.971 180.685C261.899 182.057 261.555 183.401 260.96 184.64L214.4 288.64H284.8C286.26 288.608 287.711 288.868 289.068 289.404C290.426 289.941 291.663 290.743 292.706 291.764C293.749 292.785 294.578 294.004 295.144 295.35C295.71 296.695 296.001 298.14 296 299.6C295.581 301.233 295.261 302.889 295.04 304.56L237.52 452.24C236.552 454.698 234.671 456.686 232.27 457.789C229.87 458.892 227.136 459.025 224.64 458.16C223.256 457.736 221.972 457.036 220.866 456.102C219.76 455.168 218.854 454.02 218.204 452.727C217.554 451.433 217.172 450.022 217.082 448.577C216.992 447.132 217.196 445.684 217.68 444.32L270.24 309.52H198.24C196.861 309.556 195.5 309.195 194.32 308.48C193.032 307.961 191.869 307.175 190.906 306.174C189.944 305.173 189.204 303.98 188.735 302.673C188.267 301.366 188.08 299.974 188.188 298.59C188.296 297.205 188.695 295.859 189.36 294.64L242.48 176.72Z" fill="#050505"/>
<rect x="40" y="4" width="85.625" height="30" rx="3" fill="#404040"/>
<rect x="40.5" y="4.5" width="84.625" height="29" rx="2.5" stroke="black" stroke-opacity="0.14902"/>
<path d="M46.5313 14.8594V14H52.5312V14.8594H50.0156V22H49.0469V14.8594H46.5313ZM54.8232 18.3906V22H53.9014V14H54.8232V16.9375H54.9014C55.042 16.6276 55.2529 16.3815 55.5342 16.1992C55.818 16.0143 56.1956 15.9219 56.667 15.9219C57.0758 15.9219 57.4339 16.0039 57.7412 16.168C58.0485 16.3294 58.2868 16.5781 58.4561 16.9141C58.6279 17.2474 58.7139 17.6719 58.7139 18.1875V22H57.792V18.25C57.792 17.7734 57.6683 17.4049 57.4209 17.1445C57.1761 16.8815 56.8363 16.75 56.4014 16.75C56.0993 16.75 55.8285 16.8138 55.5889 16.9414C55.3519 17.069 55.1644 17.2552 55.0264 17.5C54.891 17.7448 54.8232 18.0417 54.8232 18.3906ZM64.1816 19.5469V16H65.1035V22H64.1816V20.9844H64.1191C63.9785 21.2891 63.7598 21.5482 63.4629 21.7617C63.166 21.9727 62.791 22.0781 62.3379 22.0781C61.9629 22.0781 61.6296 21.9961 61.3379 21.832C61.0462 21.6654 60.8171 21.4154 60.6504 21.082C60.4837 20.7461 60.4004 20.3229 60.4004 19.8125V16H61.3223V19.75C61.3223 20.1875 61.4447 20.5365 61.6895 20.7969C61.9368 21.0573 62.252 21.1875 62.6348 21.1875C62.8639 21.1875 63.097 21.1289 63.334 21.0117C63.5736 20.8945 63.7741 20.7148 63.9355 20.4727C64.0996 20.2305 64.1816 19.9219 64.1816 19.5469ZM67.7139 18.3906V22H66.792V16H67.6826V16.9375H67.7607C67.9014 16.6328 68.1149 16.388 68.4014 16.2031C68.6878 16.0156 69.0576 15.9219 69.5107 15.9219C69.917 15.9219 70.2725 16.0052 70.5771 16.1719C70.8818 16.3359 71.1188 16.5859 71.2881 16.9219C71.4574 17.2552 71.542 17.6771 71.542 18.1875V22H70.6201V18.25C70.6201 17.7786 70.4977 17.4115 70.2529 17.1484C70.0081 16.8828 69.6722 16.75 69.2451 16.75C68.9508 16.75 68.6878 16.8138 68.4561 16.9414C68.2269 17.069 68.0459 17.2552 67.9131 17.5C67.7803 17.7448 67.7139 18.0417 67.7139 18.3906ZM75.4922 22.125C74.9922 22.125 74.5508 21.9987 74.168 21.7461C73.7852 21.4909 73.4857 21.1315 73.2695 20.668C73.0534 20.2018 72.9453 19.651 72.9453 19.0156C72.9453 18.3854 73.0534 17.8385 73.2695 17.375C73.4857 16.9115 73.7865 16.5534 74.1719 16.3008C74.5573 16.0482 75.0026 15.9219 75.5078 15.9219C75.8984 15.9219 76.207 15.987 76.4336 16.1172C76.6628 16.2448 76.8372 16.3906 76.957 16.5547C77.0794 16.7161 77.1745 16.849 77.2422 16.9531H77.3203V14H78.2422V22H77.3516V21.0781H77.2422C77.1745 21.1875 77.0781 21.3255 76.9531 21.4922C76.8281 21.6562 76.6497 21.8034 76.418 21.9336C76.1862 22.0612 75.8776 22.125 75.4922 22.125ZM75.6172 21.2969C75.987 21.2969 76.2995 21.2005 76.5547 21.0078C76.8099 20.8125 77.0039 20.543 77.1367 20.1992C77.2695 19.8529 77.3359 19.4531 77.3359 19C77.3359 18.5521 77.2708 18.1602 77.1406 17.8242C77.0104 17.4857 76.8177 17.2227 76.5625 17.0352C76.3073 16.8451 75.9922 16.75 75.6172 16.75C75.2266 16.75 74.901 16.8503 74.6406 17.0508C74.3828 17.2487 74.1888 17.5182 74.0586 17.8594C73.931 18.1979 73.8672 18.5781 73.8672 19C73.8672 19.4271 73.9323 19.8151 74.0625 20.1641C74.1953 20.5104 74.3906 20.7865 74.6484 20.9922C74.9089 21.1953 75.2318 21.2969 75.6172 21.2969ZM82.5742 22.125C81.9961 22.125 81.4974 21.9974 81.0781 21.7422C80.6615 21.4844 80.3398 21.125 80.1133 20.6641C79.8893 20.2005 79.7773 19.6615 79.7773 19.0469C79.7773 18.4323 79.8893 17.8906 80.1133 17.4219C80.3398 16.9505 80.6549 16.5833 81.0586 16.3203C81.4648 16.0547 81.9388 15.9219 82.4805 15.9219C82.793 15.9219 83.1016 15.974 83.4063 16.0781C83.7109 16.1823 83.9883 16.3516 84.2383 16.5859C84.4883 16.8177 84.6875 17.125 84.8359 17.5078C84.9844 17.8906 85.0586 18.362 85.0586 18.9219V19.3125H80.4336V18.5156H84.1211C84.1211 18.1771 84.0534 17.875 83.918 17.6094C83.7852 17.3437 83.5951 17.1341 83.3477 16.9805C83.1029 16.8268 82.8138 16.75 82.4805 16.75C82.1133 16.75 81.7956 16.8411 81.5273 17.0234C81.2617 17.2031 81.0573 17.4375 80.9141 17.7266C80.7708 18.0156 80.6992 18.3255 80.6992 18.6562V19.1875C80.6992 19.6406 80.7773 20.0247 80.9336 20.3398C81.0924 20.6523 81.3125 20.8906 81.5938 21.0547C81.875 21.2161 82.2018 21.2969 82.5742 21.2969C82.8164 21.2969 83.0352 21.263 83.2305 21.1953C83.4284 21.125 83.599 21.0208 83.7422 20.8828C83.8854 20.7422 83.9961 20.5677 84.0742 20.3594L84.9648 20.6094C84.8711 20.9115 84.7135 21.1771 84.4922 21.4062C84.2708 21.6328 83.9974 21.8099 83.6719 21.9375C83.3464 22.0625 82.9805 22.125 82.5742 22.125ZM86.4609 22V16H87.3516V16.9062H87.4141C87.5234 16.6094 87.7214 16.3685 88.0078 16.1836C88.2943 15.9987 88.6172 15.9062 88.9766 15.9062C89.0443 15.9062 89.1289 15.9076 89.2305 15.9102C89.332 15.9128 89.4089 15.9167 89.4609 15.9219V16.8594C89.4297 16.8516 89.3581 16.8398 89.2461 16.8242C89.1367 16.806 89.0208 16.7969 88.8984 16.7969C88.6068 16.7969 88.3464 16.8581 88.1172 16.9805C87.8906 17.1003 87.7109 17.2669 87.5781 17.4805C87.4479 17.6914 87.3828 17.9323 87.3828 18.2031V22H86.4609ZM94.8037 17.3437L93.9756 17.5781C93.9235 17.4401 93.8467 17.306 93.7451 17.1758C93.6462 17.043 93.5107 16.9336 93.3389 16.8477C93.167 16.7617 92.9469 16.7187 92.6787 16.7187C92.3115 16.7187 92.0055 16.8034 91.7607 16.9727C91.5186 17.1393 91.3975 17.3516 91.3975 17.6094C91.3975 17.8385 91.4808 18.0195 91.6475 18.1523C91.8141 18.2852 92.0745 18.3958 92.4287 18.4844L93.3193 18.7031C93.8558 18.8333 94.2555 19.0326 94.5186 19.3008C94.7816 19.5664 94.9131 19.9089 94.9131 20.3281C94.9131 20.6719 94.8141 20.9792 94.6162 21.25C94.4209 21.5208 94.1475 21.7344 93.7959 21.8906C93.4443 22.0469 93.0355 22.125 92.5693 22.125C91.9574 22.125 91.4508 21.9922 91.0498 21.7266C90.6488 21.4609 90.3949 21.0729 90.2881 20.5625L91.1631 20.3437C91.2464 20.6667 91.404 20.9089 91.6357 21.0703C91.8701 21.2318 92.1761 21.3125 92.5537 21.3125C92.9834 21.3125 93.3245 21.2214 93.5771 21.0391C93.8324 20.8542 93.96 20.6328 93.96 20.375C93.96 20.1667 93.887 19.9922 93.7412 19.8516C93.5954 19.7083 93.3714 19.6016 93.0693 19.5312L92.0693 19.2969C91.5199 19.1667 91.1162 18.9648 90.8584 18.6914C90.6032 18.4154 90.4756 18.0703 90.4756 17.6562C90.4756 17.3177 90.5706 17.0182 90.7607 16.7578C90.9535 16.4974 91.2152 16.293 91.5459 16.1445C91.8792 15.9961 92.2568 15.9219 92.6787 15.9219C93.2725 15.9219 93.7386 16.0521 94.0771 16.3125C94.4183 16.5729 94.6605 16.9167 94.8037 17.3437ZM98.9102 16V16.7812H95.8008V16H98.9102ZM96.707 14.5625H97.6289V20.2812C97.6289 20.5417 97.6667 20.737 97.7422 20.8672C97.8203 20.9948 97.9193 21.0807 98.0391 21.125C98.1615 21.1667 98.2904 21.1875 98.4258 21.1875C98.5273 21.1875 98.6107 21.1823 98.6758 21.1719C98.7409 21.1589 98.793 21.1484 98.832 21.1406L99.0195 21.9687C98.957 21.9922 98.8698 22.0156 98.7578 22.0391C98.6458 22.0651 98.5039 22.0781 98.332 22.0781C98.0716 22.0781 97.8164 22.0221 97.5664 21.9102C97.319 21.7982 97.1133 21.6276 96.9492 21.3984C96.7878 21.1693 96.707 20.8802 96.707 20.5312V14.5625ZM102.67 22.125C102.128 22.125 101.653 21.9961 101.244 21.7383C100.838 21.4805 100.52 21.1198 100.291 20.6562C100.064 20.1927 99.9512 19.651 99.9512 19.0312C99.9512 18.4062 100.064 17.8607 100.291 17.3945C100.52 16.9284 100.838 16.5664 101.244 16.3086C101.653 16.0508 102.128 15.9219 102.67 15.9219C103.212 15.9219 103.686 16.0508 104.092 16.3086C104.501 16.5664 104.818 16.9284 105.045 17.3945C105.274 17.8607 105.389 18.4062 105.389 19.0312C105.389 19.651 105.274 20.1927 105.045 20.6562C104.818 21.1198 104.501 21.4805 104.092 21.7383C103.686 21.9961 103.212 22.125 102.67 22.125ZM102.67 21.2969C103.081 21.2969 103.42 21.1914 103.686 20.9805C103.951 20.7695 104.148 20.4922 104.275 20.1484C104.403 19.8047 104.467 19.4323 104.467 19.0312C104.467 18.6302 104.403 18.2565 104.275 17.9102C104.148 17.5638 103.951 17.2839 103.686 17.0703C103.42 16.8568 103.081 16.75 102.67 16.75C102.258 16.75 101.92 16.8568 101.654 17.0703C101.389 17.2839 101.192 17.5638 101.064 17.9102C100.937 18.2565 100.873 18.6302 100.873 19.0312C100.873 19.4323 100.937 19.8047 101.064 20.1484C101.192 20.4922 101.389 20.7695 101.654 20.9805C101.92 21.1914 102.258 21.2969 102.67 21.2969ZM106.796 22V16H107.687V16.9062H107.749C107.858 16.6094 108.056 16.3685 108.343 16.1836C108.629 15.9987 108.952 15.9062 109.312 15.9062C109.379 15.9062 109.464 15.9076 109.565 15.9102C109.667 15.9128 109.744 15.9167 109.796 15.9219V16.8594C109.765 16.8516 109.693 16.8398 109.581 16.8242C109.472 16.806 109.356 16.7969 109.233 16.7969C108.942 16.7969 108.681 16.8581 108.452 16.9805C108.226 17.1003 108.046 17.2669 107.913 17.4805C107.783 17.6914 107.718 17.9323 107.718 18.2031V22H106.796ZM110.889 22V16H111.779V16.9375H111.857C111.982 16.6172 112.184 16.3685 112.463 16.1914C112.742 16.0117 113.076 15.9219 113.467 15.9219C113.863 15.9219 114.192 16.0117 114.455 16.1914C114.721 16.3685 114.928 16.6172 115.076 16.9375H115.139C115.292 16.6276 115.523 16.3815 115.83 16.1992C116.137 16.0143 116.506 15.9219 116.936 15.9219C117.472 15.9219 117.911 16.0898 118.252 16.4258C118.593 16.7591 118.764 17.2786 118.764 17.9844V22H117.842V17.9844C117.842 17.5417 117.721 17.2253 117.479 17.0352C117.236 16.8451 116.951 16.75 116.623 16.75C116.201 16.75 115.874 16.8776 115.643 17.1328C115.411 17.3854 115.295 17.7057 115.295 18.0937V22H114.357V17.8906C114.357 17.5495 114.247 17.2747 114.025 17.0664C113.804 16.8555 113.519 16.75 113.17 16.75C112.93 16.75 112.706 16.8138 112.498 16.9414C112.292 17.069 112.126 17.2461 111.998 17.4727C111.873 17.6966 111.811 17.9557 111.811 18.25V22H110.889Z" fill="white"/>
</svg>
