<svg width="512" height="512" viewBox="0 0 512 512" fill="none" xmlns="http://www.w3.org/2000/svg">
<path d="M268.88 100.4C286.673 107.522 302.959 117.945 316.88 131.12C333.234 147.71 345.147 168.152 351.52 190.56C357.585 190.6 363.606 191.599 369.36 193.52C375.569 194.63 381.581 196.652 387.2 199.52C397.371 204.173 406.469 210.883 413.918 219.227C421.367 227.571 427.006 237.368 430.48 248C434.225 258.62 435.801 269.885 435.114 281.125C434.427 292.366 431.491 303.355 426.48 313.44C425.922 314.696 425.115 315.826 424.108 316.762C423.101 317.697 421.915 318.418 420.621 318.882C419.327 319.346 417.953 319.542 416.581 319.459C415.209 319.376 413.868 319.016 412.64 318.4C410.314 317.053 408.56 314.904 407.706 312.356C406.852 309.808 406.956 307.036 408 304.56C411.875 296.954 414.139 288.63 414.648 280.109C415.158 271.588 413.902 263.053 410.96 255.04C405.235 239.015 393.501 225.847 378.24 218.32C373.761 216.244 369.102 214.584 364.32 213.36C361.733 212.559 359.022 212.234 356.32 212.4C357.184 218.305 357.532 224.274 357.36 230.24C357.169 237.211 356.501 244.16 355.36 251.04C354.537 258.062 353.2 265.014 351.36 271.84C350.4 272.88 349.44 274.8 348.4 275.84C353.364 279.224 357.163 284.057 359.28 289.68C364.993 287.555 371.189 287.081 377.159 288.312C383.129 289.543 388.632 292.429 393.04 296.64C397.418 300.925 400.418 306.419 401.658 312.418C402.898 318.417 402.321 324.65 400 330.32C403.921 331.921 407.455 334.341 410.366 337.417C413.277 340.494 415.497 344.156 416.88 348.16H442.64C447.639 347.988 452.554 346.825 457.1 344.737C461.646 342.65 465.731 339.68 469.12 336C476.003 328.892 479.897 319.414 480 309.52C479.997 302.294 478.298 295.169 475.04 288.72C471.188 282.61 465.623 277.769 459.04 274.8L450.08 269.84L455.04 260.96C457.773 255.183 460.099 249.222 462 243.12C463.156 236.807 463.825 230.415 464 224C464.051 213.294 461.954 202.687 457.831 192.807C453.709 182.926 447.645 173.974 440 166.48C424.782 151.196 404.127 142.566 382.56 142.48H372L361.04 144.4L360 134.08C357.987 120.939 351.279 108.974 341.12 100.4C336.381 95.8452 330.79 92.2708 324.668 89.8821C318.545 87.4933 312.01 86.3372 305.44 86.4799C296.05 86.1929 286.776 88.6087 278.72 93.4399C275.195 95.4326 271.873 97.7636 268.8 100.4H268.88ZM330.32 270.88V264.96C332.212 259.481 333.552 253.826 334.32 248.08C335.352 242.187 335.914 236.222 336 230.24C335.768 198.786 323.451 168.625 301.6 146C288.506 132.941 272.571 123.084 255.04 117.2L248 115.28L233.2 112C228.24 112 223.28 110.96 217.2 110.96C187.345 111.308 158.742 123.007 137.2 143.68C114.964 163.917 101.455 191.997 99.5196 222V231.2L89.5196 232C74.2997 232.082 59.7151 238.111 48.8796 248.8C38.0677 259.771 32.0068 274.556 32.0068 289.96C32.0068 305.363 38.0677 320.149 48.8796 331.12C54.3638 336.524 60.8626 340.791 68.002 343.674C75.1413 346.557 82.7804 348 90.4796 347.92H96.3996C97.7954 343.924 100.021 340.268 102.93 337.193C105.84 334.119 109.367 331.694 113.28 330.08C111.015 324.399 110.465 318.179 111.698 312.189C112.931 306.199 115.893 300.702 120.217 296.378C124.542 292.053 130.039 289.091 136.029 287.858C142.019 286.625 148.239 287.175 153.92 289.44C156.366 283.86 160.386 279.114 165.486 275.781C170.586 272.449 176.547 270.674 182.64 270.674C188.732 270.674 194.693 272.449 199.793 275.781C204.894 279.114 208.913 283.86 211.36 289.44C217.04 287.175 223.26 286.625 229.25 287.858C235.24 289.091 240.738 292.053 245.062 296.378C249.386 300.702 252.348 306.199 253.581 312.189C254.814 318.179 254.264 324.399 252 330.08C254 331.12 255.04 331.12 256.96 332.08C258 331.12 260 331.12 260.96 330.08C258.861 324.376 258.4 318.198 259.63 312.246C260.86 306.294 263.732 300.805 267.92 296.4C272.358 292.267 277.846 289.433 283.785 288.206C289.724 286.978 295.887 287.405 301.6 289.44C304.107 283.902 308.139 279.193 313.225 275.863C318.312 272.534 324.241 270.722 330.32 270.64V270.88Z" fill="#050505"/>
<path d="M126.16 368.96C124.836 369.042 123.51 368.841 122.269 368.372C121.028 367.902 119.902 367.174 118.964 366.236C118.026 365.298 117.298 364.172 116.828 362.931C116.359 361.69 116.158 360.364 116.24 359.04C116.154 357.669 116.344 356.294 116.8 354.998C117.255 353.702 117.967 352.511 118.893 351.496C119.818 350.481 120.939 349.663 122.187 349.089C123.436 348.516 124.787 348.2 126.16 348.16H158.16L135.04 326.4C133.15 324.384 132.099 321.723 132.099 318.96C132.099 316.196 133.15 313.536 135.04 311.52C137.038 309.594 139.705 308.518 142.48 308.518C145.255 308.518 147.922 309.594 149.92 311.52L172.72 333.28V302.56C172.634 301.189 172.824 299.814 173.28 298.518C173.735 297.222 174.447 296.031 175.373 295.016C176.298 294.001 177.419 293.183 178.667 292.609C179.916 292.036 181.267 291.72 182.64 291.68C185.519 291.701 188.274 292.854 190.31 294.89C192.346 296.926 193.499 299.681 193.52 302.56V333.28L215.36 311.52C217.358 309.594 220.025 308.518 222.8 308.518C225.575 308.518 228.242 309.594 230.24 311.52C232.13 313.536 233.181 316.196 233.181 318.96C233.181 321.723 232.13 324.384 230.24 326.4L208.4 348.16H239.12C242.007 348.181 244.77 349.331 246.819 351.365C248.868 353.398 250.038 356.154 250.08 359.04C250.052 360.424 249.741 361.788 249.166 363.047C248.592 364.307 247.766 365.435 246.74 366.364C245.714 367.293 244.508 368.003 243.198 368.449C241.888 368.895 240.5 369.069 239.12 368.96H208.4L230.24 392C232.13 394.016 233.181 396.676 233.181 399.44C233.181 402.204 232.13 404.864 230.24 406.88C228.242 408.806 225.575 409.882 222.8 409.882C220.025 409.882 217.358 408.806 215.36 406.88L193.52 384V416C193.491 417.377 193.182 418.733 192.613 419.987C192.044 421.241 191.225 422.366 190.208 423.293C189.19 424.221 187.995 424.932 186.694 425.384C185.393 425.835 184.014 426.018 182.64 425.92C181.319 425.989 179.998 425.78 178.764 425.306C177.529 424.832 176.407 424.103 175.472 423.168C174.537 422.233 173.808 421.111 173.334 419.876C172.86 418.642 172.651 417.321 172.72 416V384L149.92 406.8C147.922 408.726 145.255 409.802 142.48 409.802C139.705 409.802 137.038 408.726 135.04 406.8C133.15 404.783 132.099 402.123 132.099 399.36C132.099 396.596 133.15 393.936 135.04 391.92L157.84 369.12L126.16 368.96ZM363.04 311.52C365.038 309.594 367.705 308.518 370.48 308.518C373.255 308.518 375.922 309.594 377.92 311.52C379.81 313.536 380.861 316.196 380.861 318.96C380.861 321.723 379.81 324.384 377.92 326.4L356.08 348.16H386.8C389.687 348.181 392.45 349.331 394.499 351.365C396.548 353.398 397.718 356.154 397.76 359.04C397.732 360.424 397.421 361.788 396.846 363.047C396.272 364.307 395.446 365.435 394.42 366.364C393.394 367.293 392.188 368.003 390.878 368.449C389.568 368.895 388.18 369.069 386.8 368.96H356.08L377.92 392C379.81 394.016 380.861 396.676 380.861 399.44C380.861 402.204 379.81 404.864 377.92 406.88C375.922 408.806 373.255 409.882 370.48 409.882C367.705 409.882 365.038 408.806 363.04 406.88L341.2 384V416C341.171 417.377 340.862 418.733 340.293 419.987C339.724 421.241 338.905 422.366 337.888 423.293C336.87 424.221 335.675 424.932 334.374 425.384C333.073 425.835 331.694 426.018 330.32 425.92C328.999 425.989 327.678 425.78 326.444 425.306C325.209 424.832 324.087 424.103 323.152 423.168C322.217 422.233 321.488 421.111 321.014 419.876C320.54 418.642 320.331 417.321 320.4 416V384L297.6 406.64C295.616 408.561 292.962 409.635 290.2 409.635C287.438 409.635 284.785 408.561 282.8 406.64C280.874 404.642 279.798 401.975 279.798 399.2C279.798 396.425 280.874 393.758 282.8 391.76L305.52 368.96H273.52C272.229 368.984 270.947 368.741 269.754 368.246C268.561 367.751 267.484 367.014 266.59 366.083C265.696 365.151 265.004 364.044 264.558 362.832C264.113 361.62 263.923 360.329 264 359.04C263.914 357.669 264.104 356.294 264.56 354.998C265.015 353.702 265.727 352.511 266.653 351.496C267.578 350.481 268.699 349.663 269.947 349.089C271.196 348.516 272.547 348.2 273.92 348.16H305.92L282.8 326.4C280.874 324.402 279.798 321.735 279.798 318.96C279.798 316.185 280.874 313.518 282.8 311.52C284.785 309.599 287.438 308.525 290.2 308.525C292.962 308.525 295.616 309.599 297.6 311.52L320.4 333.28V302.56C320.314 301.189 320.504 299.814 320.96 298.518C321.415 297.222 322.127 296.031 323.053 295.016C323.978 294.001 325.099 293.183 326.347 292.609C327.596 292.036 328.947 291.72 330.32 291.68C333.199 291.701 335.954 292.854 337.99 294.89C340.026 296.926 341.179 299.681 341.2 302.56V333.28L363.04 311.52Z" fill="#050505"/>
</svg>
