<svg width="512" height="512" viewBox="0 0 512 512" fill="none" xmlns="http://www.w3.org/2000/svg">
<path d="M475.04 264C471.236 257.849 465.658 252.995 459.04 250.08L450.08 245.12L455.04 236.24C457.76 230.458 460.085 224.497 462 218.4C463.116 212.324 463.785 206.174 464 200C464.041 189.308 461.938 178.716 457.816 168.85C453.694 158.984 447.635 150.045 440 142.56C424.777 127.284 404.125 118.655 382.56 118.56H372L361.04 120L360 109.44C357.987 96.2995 351.279 84.3339 341.12 75.76C336.381 71.2053 330.79 67.6309 324.668 65.2422C318.545 62.8534 312.01 61.6973 305.44 61.84C296.05 61.553 286.776 63.9688 278.72 68.8C275.195 70.7927 271.873 73.1237 268.8 75.76C286.608 82.8527 302.9 93.2793 316.799 106.48C333.171 123.058 345.086 143.504 351.44 165.92C357.505 165.96 363.526 166.959 369.28 168.88C375.489 169.99 381.501 172.012 387.12 174.88C397.374 179.497 406.553 186.199 414.074 194.56C421.594 202.92 427.29 212.756 430.799 223.44C434.547 234.046 436.125 245.298 435.438 256.526C434.75 267.754 431.813 278.73 426.799 288.8C426.251 290.064 425.449 291.202 424.444 292.144C423.438 293.086 422.25 293.812 420.953 294.276C419.656 294.741 418.278 294.935 416.903 294.846C415.528 294.758 414.186 294.388 412.96 293.76C410.584 292.48 408.764 290.368 407.848 287.828C406.933 285.289 406.987 282.502 408 280C411.877 272.381 414.142 264.043 414.651 255.509C415.16 246.974 413.904 238.427 410.96 230.4C405.203 214.414 393.475 201.281 378.24 193.76C373.761 191.684 369.102 190.024 364.32 188.8C361.733 187.999 359.022 187.674 356.32 187.84C357.186 193.745 357.534 199.714 357.359 205.68C357.166 212.651 356.497 219.6 355.359 226.48C354.529 233.501 353.192 240.452 351.359 247.28C350.902 248.646 350.181 249.908 349.236 250.995C348.291 252.082 347.142 252.972 345.853 253.615C344.564 254.257 343.161 254.64 341.724 254.74C340.288 254.841 338.845 254.657 337.48 254.2C336.114 253.743 334.851 253.022 333.765 252.077C332.678 251.132 331.787 249.982 331.145 248.693C330.502 247.404 330.12 246.002 330.019 244.565C329.919 243.128 330.103 241.686 330.56 240.32C332.453 234.868 333.793 229.24 334.56 223.52C335.511 217.594 335.993 211.602 336 205.6C335.768 174.146 323.451 143.985 301.6 121.36C288.506 108.301 272.571 98.4442 255.04 92.56L248 90.64L233.2 88C228.24 88 223.28 87.04 217.2 87.04C187.345 87.3884 158.742 99.087 137.2 119.76C114.964 139.997 101.455 168.077 99.5195 198.08V206.96L89.5195 208C74.2996 208.082 59.715 214.112 48.8795 224.8C38.0534 235.748 31.9814 250.523 31.9814 265.92C31.9814 281.317 38.0534 296.092 48.8795 307.04C54.3493 312.47 60.8436 316.758 67.9852 319.656C75.1267 322.554 82.7729 324.003 90.4795 323.92C207.44 323.92 325.36 321.92 442.48 323.92C447.491 323.814 452.431 322.704 457.006 320.656C461.582 318.609 465.7 315.666 469.12 312C476.186 304.752 480.097 295.002 480 284.88C480.01 277.627 478.31 270.474 475.04 264ZM442.56 343.36C438.189 343.391 433.87 344.299 429.857 346.03C425.844 347.762 422.22 350.282 419.2 353.44C417.635 355.289 415.687 356.777 413.491 357.799C411.294 358.821 408.902 359.354 406.48 359.36C404.06 359.338 401.673 358.798 399.479 357.777C397.285 356.756 395.335 355.277 393.76 353.44C390.767 350.256 387.154 347.718 383.144 345.983C379.133 344.248 374.809 343.353 370.44 343.353C366.07 343.353 361.746 344.248 357.735 345.983C353.725 347.718 350.112 350.256 347.12 353.44C345.565 355.29 343.625 356.778 341.434 357.799C339.244 358.82 336.856 359.349 334.44 359.349C332.023 359.349 329.636 358.82 327.445 357.799C325.254 356.778 323.314 355.29 321.76 353.44C318.767 350.256 315.154 347.718 311.144 345.983C307.133 344.248 302.809 343.353 298.44 343.353C294.07 343.353 289.746 344.248 285.735 345.983C281.725 347.718 278.112 350.256 275.12 353.44C273.558 355.292 271.61 356.781 269.413 357.802C267.216 358.823 264.822 359.352 262.4 359.352C259.977 359.352 257.583 358.823 255.386 357.802C253.189 356.781 251.242 355.292 249.68 353.44C246.688 350.268 243.08 347.741 239.077 346.014C235.074 344.286 230.76 343.396 226.4 343.396C222.04 343.396 217.726 344.286 213.722 346.014C209.719 347.741 206.111 350.268 203.12 353.44C201.558 355.292 199.61 356.781 197.413 357.802C195.216 358.823 192.822 359.352 190.4 359.352C187.977 359.352 185.583 358.823 183.386 357.802C181.189 356.781 179.242 355.292 177.68 353.44C174.687 350.256 171.074 347.718 167.064 345.983C163.053 344.248 158.729 343.353 154.36 343.353C149.99 343.353 145.666 344.248 141.655 345.983C137.645 347.718 134.032 350.256 131.04 353.44C129.493 355.289 127.559 356.776 125.375 357.796C123.191 358.817 120.81 359.346 118.4 359.346C115.989 359.346 113.608 358.817 111.424 357.796C109.24 356.776 107.306 355.289 105.76 353.44C102.745 350.274 99.1216 347.75 95.1076 346.018C91.0936 344.286 86.7712 343.382 82.3995 343.36C80.2778 343.36 78.243 344.203 76.7427 345.703C75.2424 347.204 74.3995 349.238 74.3995 351.36C74.3995 353.482 75.2424 355.517 76.7427 357.017C78.243 358.517 80.2778 359.36 82.3995 359.36C84.8255 359.392 87.2164 359.944 89.4108 360.979C91.6051 362.014 93.5519 363.508 95.1195 365.36C98.111 368.532 101.719 371.059 105.722 372.786C109.726 374.514 114.04 375.405 118.4 375.405C122.76 375.405 127.074 374.514 131.077 372.786C135.08 371.059 138.688 368.532 141.68 365.36C143.174 363.418 145.094 361.845 147.293 360.763C149.491 359.681 151.909 359.118 154.36 359.118C156.81 359.118 159.228 359.681 161.426 360.763C163.625 361.845 165.545 363.418 167.04 365.36C170.032 368.545 173.645 371.082 177.655 372.817C181.666 374.552 185.99 375.447 190.36 375.447C194.729 375.447 199.053 374.552 203.064 372.817C207.074 371.082 210.687 368.545 213.68 365.36C215.226 363.483 217.168 361.972 219.367 360.934C221.566 359.896 223.968 359.358 226.4 359.358C228.831 359.358 231.233 359.896 233.432 360.934C235.631 361.972 237.573 363.483 239.12 365.36C242.112 368.545 245.725 371.082 249.735 372.817C253.746 374.552 258.07 375.447 262.44 375.447C266.809 375.447 271.133 374.552 275.144 372.817C279.154 371.082 282.767 368.545 285.76 365.36C287.254 363.418 289.174 361.845 291.373 360.763C293.571 359.681 295.989 359.118 298.44 359.118C300.89 359.118 303.308 359.681 305.506 360.763C307.705 361.845 309.625 363.418 311.12 365.36C314.112 368.545 317.725 371.082 321.735 372.817C325.746 374.552 330.07 375.447 334.44 375.447C338.809 375.447 343.133 374.552 347.144 372.817C351.154 371.082 354.767 368.545 357.76 365.36C359.306 363.483 361.248 361.972 363.447 360.934C365.646 359.896 368.048 359.358 370.48 359.358C372.911 359.358 375.313 359.896 377.512 360.934C379.711 361.972 381.653 363.483 383.2 365.36C386.192 368.545 389.805 371.082 393.815 372.817C397.826 374.552 402.15 375.447 406.52 375.447C410.889 375.447 415.213 374.552 419.224 372.817C423.234 371.082 426.847 368.545 429.84 365.36C431.411 363.512 433.358 362.021 435.552 360.987C437.745 359.952 440.134 359.397 442.56 359.36C444.681 359.36 446.716 358.517 448.216 357.017C449.717 355.517 450.56 353.482 450.56 351.36C450.56 349.238 449.717 347.204 448.216 345.703C446.716 344.203 444.681 343.36 442.56 343.36Z" fill="#050505"/>
<path d="M442.56 380.8C438.196 380.82 433.88 381.716 429.867 383.433C425.855 385.151 422.228 387.656 419.2 390.8C417.64 392.66 415.694 394.159 413.498 395.195C411.303 396.231 408.908 396.778 406.48 396.8C404.055 396.763 401.666 396.208 399.473 395.173C397.279 394.139 395.331 392.648 393.76 390.8C390.768 387.615 387.155 385.078 383.144 383.343C379.134 381.608 374.81 380.713 370.44 380.713C366.071 380.713 361.747 381.608 357.736 383.343C353.726 385.078 350.113 387.615 347.12 390.8C345.626 392.742 343.705 394.315 341.507 395.397C339.308 396.479 336.891 397.042 334.44 397.042C331.99 397.042 329.572 396.479 327.374 395.397C325.175 394.315 323.255 392.742 321.76 390.8C318.768 387.615 315.155 385.078 311.144 383.343C307.134 381.608 302.81 380.713 298.44 380.713C294.071 380.713 289.747 381.608 285.736 383.343C281.726 385.078 278.113 387.615 275.12 390.8C273.574 392.677 271.632 394.188 269.433 395.226C267.234 396.264 264.832 396.802 262.4 396.802C259.969 396.802 257.567 396.264 255.368 395.226C253.169 394.188 251.226 392.677 249.68 390.8C246.689 387.628 243.081 385.101 239.078 383.374C235.074 381.646 230.76 380.755 226.4 380.755C222.04 380.755 217.726 381.646 213.723 383.374C209.72 385.101 206.112 387.628 203.12 390.8C201.574 392.677 199.632 394.188 197.433 395.226C195.234 396.264 192.832 396.802 190.4 396.802C187.969 396.802 185.567 396.264 183.368 395.226C181.169 394.188 179.226 392.677 177.68 390.8C174.688 387.615 171.075 385.078 167.064 383.343C163.054 381.608 158.73 380.713 154.36 380.713C149.991 380.713 145.667 381.608 141.656 383.343C137.646 385.078 134.033 387.615 131.04 390.8C129.545 392.727 127.628 394.287 125.438 395.36C123.247 396.432 120.84 396.99 118.4 396.99C115.961 396.99 113.554 396.432 111.363 395.36C109.172 394.287 107.256 392.727 105.76 390.8C102.739 387.649 99.1126 385.139 95.0989 383.421C91.0852 381.703 86.7663 380.811 82.4004 380.8C80.2787 380.8 78.2438 381.643 76.7435 383.143C75.2432 384.643 74.4004 386.678 74.4004 388.8C74.4004 390.922 75.2432 392.956 76.7435 394.457C78.2438 395.957 80.2787 396.8 82.4004 396.8C84.8211 396.817 87.2099 397.354 89.4046 398.376C91.5993 399.397 93.5487 400.879 95.1204 402.72C98.1118 405.892 101.72 408.419 105.723 410.146C109.726 411.874 114.04 412.764 118.4 412.764C122.76 412.764 127.074 411.874 131.078 410.146C135.081 408.419 138.689 405.892 141.68 402.72C143.235 400.87 145.175 399.382 147.366 398.361C149.556 397.34 151.944 396.811 154.36 396.811C156.777 396.811 159.164 397.34 161.355 398.361C163.545 399.382 165.486 400.87 167.04 402.72C170.033 405.904 173.646 408.442 177.656 410.177C181.667 411.912 185.991 412.807 190.36 412.807C194.73 412.807 199.054 411.912 203.064 410.177C207.075 408.442 210.688 405.904 213.68 402.72C215.242 400.868 217.19 399.379 219.387 398.358C221.584 397.337 223.978 396.808 226.4 396.808C228.823 396.808 231.217 397.337 233.414 398.358C235.611 399.379 237.558 400.868 239.12 402.72C242.113 405.904 245.726 408.442 249.736 410.177C253.747 411.912 258.071 412.807 262.44 412.807C266.81 412.807 271.134 411.912 275.144 410.177C279.155 408.442 282.768 405.904 285.76 402.72C287.315 400.87 289.255 399.382 291.446 398.361C293.636 397.34 296.024 396.811 298.44 396.811C300.857 396.811 303.244 397.34 305.435 398.361C307.625 399.382 309.566 400.87 311.12 402.72C314.113 405.904 317.726 408.442 321.736 410.177C325.747 411.912 330.071 412.807 334.44 412.807C338.81 412.807 343.134 411.912 347.144 410.177C351.155 408.442 354.768 405.904 357.76 402.72C359.322 400.868 361.27 399.379 363.467 398.358C365.664 397.337 368.058 396.808 370.48 396.808C372.903 396.808 375.297 397.337 377.494 398.358C379.691 399.379 381.638 400.868 383.2 402.72C386.193 405.904 389.806 408.442 393.816 410.177C397.827 411.912 402.151 412.807 406.52 412.807C410.89 412.807 415.214 411.912 419.224 410.177C423.235 408.442 426.848 405.904 429.84 402.72C431.416 400.883 433.366 399.404 435.56 398.383C437.754 397.362 440.141 396.822 442.56 396.8C444.682 396.8 446.717 395.957 448.217 394.457C449.718 392.956 450.56 390.922 450.56 388.8C450.56 386.678 449.718 384.643 448.217 383.143C446.717 381.643 444.682 380.8 442.56 380.8Z" fill="#050505"/>
<path d="M442.56 418.16C438.196 418.18 433.88 419.076 429.867 420.793C425.855 422.511 422.228 425.016 419.2 428.16C417.64 430.02 415.694 431.519 413.498 432.555C411.303 433.591 408.908 434.138 406.48 434.16C404.055 434.123 401.666 433.568 399.473 432.534C397.279 431.499 395.331 430.008 393.76 428.16C390.768 424.976 387.155 422.438 383.144 420.703C379.134 418.968 374.81 418.073 370.44 418.073C366.071 418.073 361.747 418.968 357.736 420.703C353.726 422.438 350.113 424.976 347.12 428.16C345.626 430.102 343.705 431.675 341.507 432.757C339.308 433.839 336.891 434.402 334.44 434.402C331.99 434.402 329.572 433.839 327.374 432.757C325.175 431.675 323.255 430.102 321.76 428.16C318.768 424.976 315.155 422.438 311.144 420.703C307.134 418.968 302.81 418.073 298.44 418.073C294.071 418.073 289.747 418.968 285.736 420.703C281.726 422.438 278.113 424.976 275.12 428.16C273.574 430.037 271.632 431.548 269.433 432.586C267.234 433.624 264.832 434.162 262.4 434.162C259.969 434.162 257.567 433.624 255.368 432.586C253.169 431.548 251.226 430.037 249.68 428.16C246.689 424.988 243.081 422.461 239.078 420.734C235.074 419.006 230.76 418.115 226.4 418.115C222.04 418.115 217.726 419.006 213.723 420.734C209.72 422.461 206.112 424.988 203.12 428.16C201.574 430.037 199.632 431.548 197.433 432.586C195.234 433.624 192.832 434.162 190.4 434.162C187.969 434.162 185.567 433.624 183.368 432.586C181.169 431.548 179.226 430.037 177.68 428.16C174.688 424.976 171.075 422.438 167.064 420.703C163.054 418.968 158.73 418.073 154.36 418.073C149.991 418.073 145.667 418.968 141.656 420.703C137.646 422.438 134.033 424.976 131.04 428.16C129.545 430.087 127.628 431.647 125.438 432.72C123.247 433.793 120.84 434.35 118.4 434.35C115.961 434.35 113.554 433.793 111.363 432.72C109.172 431.647 107.256 430.087 105.76 428.16C102.739 425.009 99.1126 422.499 95.0989 420.781C91.0852 419.063 86.7663 418.171 82.4004 418.16C80.2787 418.16 78.2438 419.003 76.7435 420.503C75.2432 422.003 74.4004 424.038 74.4004 426.16C74.4004 428.282 75.2432 430.317 76.7435 431.817C78.2438 433.317 80.2787 434.16 82.4004 434.16C84.8211 434.177 87.2099 434.714 89.4046 435.736C91.5993 436.757 93.5487 438.239 95.1204 440.08C98.1118 443.252 101.72 445.779 105.723 447.506C109.726 449.234 114.04 450.125 118.4 450.125C122.76 450.125 127.074 449.234 131.078 447.506C135.081 445.779 138.689 443.252 141.68 440.08C143.235 438.23 145.175 436.742 147.366 435.721C149.556 434.7 151.944 434.171 154.36 434.171C156.777 434.171 159.164 434.7 161.355 435.721C163.545 436.742 165.486 438.23 167.04 440.08C170.033 443.265 173.646 445.802 177.656 447.537C181.667 449.272 185.991 450.167 190.36 450.167C194.73 450.167 199.054 449.272 203.064 447.537C207.075 445.802 210.688 443.265 213.68 440.08C215.242 438.228 217.19 436.739 219.387 435.718C221.584 434.697 223.978 434.168 226.4 434.168C228.823 434.168 231.217 434.697 233.414 435.718C235.611 436.739 237.558 438.228 239.12 440.08C242.113 443.265 245.726 445.802 249.736 447.537C253.747 449.272 258.071 450.167 262.44 450.167C266.81 450.167 271.134 449.272 275.144 447.537C279.155 445.802 282.768 443.265 285.76 440.08C287.315 438.23 289.255 436.742 291.446 435.721C293.636 434.7 296.024 434.171 298.44 434.171C300.857 434.171 303.244 434.7 305.435 435.721C307.625 436.742 309.566 438.23 311.12 440.08C314.113 443.265 317.726 445.802 321.736 447.537C325.747 449.272 330.071 450.167 334.44 450.167C338.81 450.167 343.134 449.272 347.144 447.537C351.155 445.802 354.768 443.265 357.76 440.08C359.315 438.216 361.259 436.716 363.458 435.686C365.656 434.657 368.053 434.124 370.48 434.124C372.908 434.124 375.305 434.657 377.503 435.686C379.701 436.716 381.646 438.216 383.2 440.08C386.193 443.265 389.806 445.802 393.816 447.537C397.827 449.272 402.151 450.167 406.52 450.167C410.89 450.167 415.214 449.272 419.224 447.537C423.235 445.802 426.848 443.265 429.84 440.08C431.416 438.243 433.366 436.764 435.56 435.743C437.754 434.722 440.141 434.182 442.56 434.16C444.682 434.16 446.717 433.317 448.217 431.817C449.718 430.317 450.56 428.282 450.56 426.16C450.56 424.038 449.718 422.003 448.217 420.503C446.717 419.003 444.682 418.16 442.56 418.16Z" fill="#050505"/>
</svg>
