<svg width="427" height="427" viewBox="0 0 427 427" fill="none" xmlns="http://www.w3.org/2000/svg">
<path d="M327.253 73.8133C322.19 73.8133 317.241 75.3147 313.031 78.1277C308.821 80.9407 305.54 84.9388 303.602 89.6166C301.664 94.2944 301.157 99.4417 302.145 104.408C303.133 109.374 305.571 113.935 309.151 117.515C312.732 121.095 317.293 123.534 322.259 124.521C327.225 125.509 332.372 125.002 337.05 123.065C341.728 121.127 345.726 117.846 348.539 113.636C351.352 109.426 352.853 104.477 352.853 99.4133C352.853 92.6238 350.156 86.1123 345.355 81.3114C340.554 76.5105 334.043 73.8133 327.253 73.8133ZM425.387 125.44C424.972 107.74 421.657 90.2273 415.573 73.6C410.149 59.3735 401.706 46.4913 390.827 35.84C380.263 24.9051 367.351 16.5158 353.067 11.3067C336.483 5.0381 318.951 1.64715 301.227 1.28C278.613 -1.19209e-06 271.36 0 213.333 0C155.307 0 148.053 -1.19209e-06 125.44 1.28C107.715 1.64715 90.1833 5.0381 73.6 11.3067C59.3424 16.5685 46.4413 24.9506 35.84 35.84C24.9051 46.4038 16.5158 59.316 11.3067 73.6C5.0381 90.1833 1.64715 107.715 1.28 125.44C-1.19209e-06 148.053 0 155.307 0 213.333C0 271.36 -1.19209e-06 278.613 1.28 301.227C1.64715 318.951 5.0381 336.483 11.3067 353.067C16.5158 367.351 24.9051 380.263 35.84 390.827C46.4413 401.716 59.3424 410.098 73.6 415.36C90.1833 421.629 107.715 425.02 125.44 425.387C148.053 426.667 155.307 426.667 213.333 426.667C271.36 426.667 278.613 426.667 301.227 425.387C318.951 425.02 336.483 421.629 353.067 415.36C367.351 410.151 380.263 401.762 390.827 390.827C401.754 380.215 410.204 367.321 415.573 353.067C421.657 336.439 424.972 318.927 425.387 301.227C425.387 278.613 426.667 271.36 426.667 213.333C426.667 155.307 426.667 148.053 425.387 125.44ZM386.987 298.667C386.831 312.208 384.379 325.626 379.733 338.347C376.327 347.631 370.856 356.02 363.733 362.88C356.814 369.931 348.442 375.391 339.2 378.88C326.479 383.525 313.062 385.978 299.52 386.133C278.187 387.2 270.293 387.413 214.187 387.413C158.08 387.413 150.187 387.413 128.853 386.133C114.792 386.397 100.791 384.231 87.4667 379.733C78.63 376.066 70.6423 370.619 64 363.733C56.9192 356.88 51.5167 348.484 48.2133 339.2C43.0049 326.297 40.1161 312.575 39.68 298.667C39.68 277.333 38.4 269.44 38.4 213.333C38.4 157.227 38.4 149.333 39.68 128C39.7756 114.156 42.3029 100.436 47.1467 87.4667C50.9023 78.4621 56.667 70.4354 64 64C70.4813 56.6649 78.4915 50.8394 87.4667 46.9333C100.47 42.2409 114.176 39.7884 128 39.68C149.333 39.68 157.227 38.4 213.333 38.4C269.44 38.4 277.333 38.4 298.667 39.68C312.208 39.8353 325.626 42.2879 338.347 46.9333C348.041 50.5312 356.742 56.3807 363.733 64C370.724 70.5531 376.187 78.565 379.733 87.4667C384.475 100.457 386.929 114.171 386.987 128C388.053 149.333 388.267 157.227 388.267 213.333C388.267 269.44 388.053 277.333 386.987 298.667ZM213.333 103.893C191.697 103.936 170.559 110.39 152.59 122.441C134.621 134.492 120.627 151.599 112.376 171.6C104.126 191.601 101.989 213.599 106.236 234.814C110.482 256.03 120.922 275.51 136.236 290.794C151.55 306.078 171.051 316.48 192.274 320.686C213.498 324.891 235.492 322.712 255.477 314.422C275.462 306.133 292.541 292.105 304.557 274.113C316.573 256.12 322.987 234.969 322.987 213.333C323.015 198.936 320.196 184.674 314.693 171.37C309.19 158.065 301.111 145.98 290.92 135.809C280.729 125.638 268.628 117.582 255.313 112.105C241.998 106.628 227.731 103.837 213.333 103.893ZM213.333 284.373C199.283 284.373 185.548 280.207 173.866 272.401C162.183 264.595 153.078 253.5 147.701 240.519C142.324 227.538 140.917 213.255 143.658 199.474C146.399 185.694 153.165 173.036 163.1 163.1C173.036 153.165 185.694 146.399 199.474 143.658C213.255 140.917 227.538 142.324 240.519 147.701C253.5 153.078 264.595 162.183 272.401 173.866C280.207 185.548 284.373 199.283 284.373 213.333C284.373 222.662 282.536 231.9 278.966 240.519C275.396 249.138 270.163 256.97 263.566 263.566C256.97 270.163 249.138 275.396 240.519 278.966C231.9 282.536 222.662 284.373 213.333 284.373Z" fill="#050505"/>
</svg>
