<svg width="35" height="35" viewBox="0 0 35 35" fill="none" xmlns="http://www.w3.org/2000/svg">
<path d="M34.1714 31.9531L23.9526 21.7344C26.0563 19.0649 27.0607 15.6925 26.7604 12.307C26.46 8.9215 24.8776 5.77864 22.3367 3.5212C19.7959 1.26376 16.4886 0.0623029 13.0913 0.162542C9.69398 0.26278 6.46329 1.65714 4.05997 4.06046C1.65665 6.46378 0.262292 9.69446 0.162053 13.0918C0.0618146 16.4891 1.26327 19.7964 3.52071 22.3372C5.77815 24.8781 8.92101 26.4605 12.3065 26.7608C15.692 27.0612 19.0644 26.0568 21.7339 23.9531L31.9526 34.1719C32.0979 34.3183 32.2707 34.4346 32.4611 34.5139C32.6515 34.5932 32.8557 34.6341 33.062 34.6341C33.2683 34.6341 33.4725 34.5932 33.6629 34.5139C33.8533 34.4346 34.0261 34.3183 34.1714 34.1719C34.3178 34.0266 34.4341 33.8538 34.5134 33.6634C34.5927 33.473 34.6336 33.2688 34.6336 33.0625C34.6336 32.8562 34.5927 32.652 34.5134 32.4616C34.4341 32.2712 34.3178 32.0984 34.1714 31.9531ZM3.37452 13.5313C3.37452 11.5225 3.97017 9.55893 5.08615 7.88875C6.20214 6.21856 7.78833 4.91681 9.64414 4.1481C11.5 3.3794 13.542 3.17827 15.5122 3.57015C17.4823 3.96204 19.2919 4.92932 20.7123 6.3497C22.1327 7.77008 23.1 9.57975 23.4919 11.5499C23.8837 13.52 23.6826 15.5621 22.9139 17.4179C22.1452 19.2737 20.8435 20.8599 19.1733 21.9759C17.5031 23.0919 15.5395 23.6875 13.5308 23.6875C10.8384 23.6834 8.25755 22.612 6.35378 20.7082C4.45001 18.8045 3.37865 16.2236 3.37452 13.5313Z" fill="#484848"/>
</svg>
