<svg width="19" height="19" viewBox="0 0 19 19" fill="none" xmlns="http://www.w3.org/2000/svg">
<path d="M10.3953 1.39532L9.39532 4.32932L8.39532 1.39532C8.3414 1.23641 8.32612 1.06694 8.35076 0.900956C8.3754 0.73497 8.43924 0.577244 8.53699 0.440851C8.63474 0.304457 8.76359 0.193322 8.91286 0.116656C9.06212 0.0399902 9.22751 0 9.39532 0C9.56312 0 9.72851 0.0399902 9.87778 0.116656C10.027 0.193322 10.1559 0.304457 10.2536 0.440851C10.3514 0.577244 10.4152 0.73497 10.4399 0.900956C10.4645 1.06694 10.4492 1.23641 10.3953 1.39532ZM1.39532 8.39532L4.32932 9.39532L1.39532 10.3953C1.23641 10.4492 1.06694 10.4645 0.900956 10.4399C0.73497 10.4152 0.577244 10.3514 0.440851 10.2536C0.304457 10.1559 0.193322 10.027 0.116656 9.87778C0.0399902 9.72851 0 9.56312 0 9.39532C0 9.22751 0.0399902 9.06212 0.116656 8.91286C0.193322 8.76359 0.304457 8.63474 0.440851 8.53699C0.577244 8.43924 0.73497 8.3754 0.900956 8.35076C1.06694 8.32612 1.23641 8.3414 1.39532 8.39532ZM8.39532 17.3953L9.39532 14.4613L10.3953 17.3953C10.4492 17.5542 10.4645 17.7237 10.4399 17.8897C10.4152 18.0557 10.3514 18.2134 10.2536 18.3498C10.1559 18.4862 10.027 18.5973 9.87778 18.674C9.72851 18.7506 9.56312 18.7906 9.39532 18.7906C9.22751 18.7906 9.06212 18.7506 8.91286 18.674C8.76359 18.5973 8.63474 18.4862 8.53699 18.3498C8.43924 18.2134 8.3754 18.0557 8.35076 17.8897C8.32612 17.7237 8.3414 17.5542 8.39532 17.3953ZM17.3953 10.3933L14.4613 9.39332L17.3953 8.39332C17.5542 8.3394 17.7237 8.32412 17.8897 8.34876C18.0557 8.3734 18.2134 8.43724 18.3498 8.53499C18.4862 8.63274 18.5973 8.76159 18.674 8.91086C18.7506 9.06012 18.7906 9.22551 18.7906 9.39332C18.7906 9.56112 18.7506 9.72651 18.674 9.87578C18.5973 10.025 18.4862 10.1539 18.3498 10.2516C18.2134 10.3494 18.0557 10.4132 17.8897 10.4379C17.7237 10.4625 17.5542 10.4472 17.3953 10.3933ZM4.44532 3.03132L5.81232 5.81232L3.03132 4.44532C2.88019 4.37137 2.74889 4.26241 2.64835 4.1275C2.54781 3.9926 2.48093 3.83564 2.45327 3.66967C2.4256 3.50371 2.43796 3.33355 2.4893 3.17332C2.54064 3.01309 2.6295 2.86744 2.74847 2.74847C2.86744 2.6295 3.01309 2.54064 3.17332 2.4893C3.33355 2.43796 3.50371 2.4256 3.66967 2.45327C3.83564 2.48093 3.9926 2.54781 4.1275 2.64835C4.26241 2.74889 4.37137 2.88019 4.44532 3.03132ZM3.03132 14.3443L5.81232 12.9773L4.44532 15.7583C4.37137 15.9094 4.26241 16.0407 4.1275 16.1413C3.9926 16.2418 3.83564 16.3087 3.66967 16.3364C3.50371 16.364 3.33355 16.3517 3.17332 16.3003C3.01309 16.249 2.86744 16.1601 2.74847 16.0412C2.6295 15.9222 2.54064 15.7765 2.4893 15.6163C2.43796 15.4561 2.4256 15.2859 2.45327 15.12C2.48093 14.954 2.54781 14.797 2.64835 14.6621C2.74889 14.5272 2.88019 14.4183 3.03132 14.3443ZM14.3443 15.7583L12.9773 12.9773L15.7583 14.3443C15.9094 14.4183 16.0407 14.5272 16.1413 14.6621C16.2418 14.797 16.3087 14.954 16.3364 15.12C16.364 15.2859 16.3517 15.4561 16.3003 15.6163C16.249 15.7765 16.1601 15.9222 16.0412 16.0412C15.9222 16.1601 15.7765 16.249 15.6163 16.3003C15.4561 16.3517 15.2859 16.364 15.12 16.3364C14.954 16.3087 14.797 16.2418 14.6621 16.1413C14.5272 16.0407 14.4183 15.9094 14.3443 15.7583ZM15.7573 4.44332L12.9753 5.81132L14.3433 3.02932C14.4173 2.87819 14.5262 2.74689 14.6611 2.64635C14.796 2.54581 14.953 2.47893 15.119 2.45127C15.2849 2.4236 15.4551 2.43596 15.6153 2.4873C15.7755 2.53865 15.9212 2.6275 16.0402 2.74647C16.1591 2.86544 16.248 3.01109 16.2993 3.17132C16.3507 3.33155 16.363 3.50171 16.3354 3.66767C16.3077 3.83364 16.2408 3.9906 16.1403 4.1255C16.0397 4.26041 15.9084 4.36937 15.7573 4.44332ZM9.39532 13.8953C6.91432 13.8953 4.89532 11.8763 4.89532 9.39532C4.89532 6.91432 6.91432 4.89532 9.39532 4.89532C11.8763 4.89532 13.8953 6.91432 13.8953 9.39532C13.8953 11.8763 11.8763 13.8953 9.39532 13.8953ZM9.39532 6.89532C8.01632 6.89532 6.89532 8.01632 6.89532 9.39532C6.89532 10.7743 8.01632 11.8953 9.39532 11.8953C10.7743 11.8953 11.8953 10.7743 11.8953 9.39532C11.8953 8.01632 10.7743 6.89532 9.39532 6.89532Z" fill="#FFD500"/>
</svg>
