<svg width="356" height="339" viewBox="0 0 356 339" fill="none" xmlns="http://www.w3.org/2000/svg">
<path d="M178 65C169.2 65 162 57.8 162 49V33C162 24.2 169.2 17 178 17C186.8 17 194 24.2 194 33V49C194 57.8 186.8 65 178 65ZM266 153C266 144.2 273.2 137 282 137H298C306.8 137 314 144.2 314 153C314 161.8 306.8 169 298 169H282C273.2 169 266 161.8 266 153ZM42 153C42 144.2 49.2 137 58 137H74C82.8 137 90 144.2 90 153C90 161.8 82.8 169 74 169H58C49.2 169 42 161.8 42 153ZM82 57C88.4 50.6 98 50.6 104.4 57L115.6 68.2C122 74.6 122 84.2 115.6 90.6C109.2 97 99.6 97 93.2 90.6L82 79.4C75.6 73 75.6 63.4 82 57ZM274 57C280.4 63.4 280.4 73 274 79.4L262.8 90.6C256.4 97 246.8 97 240.4 90.6C234 84.2 234 74.6 240.4 68.2L251.6 57C258 50.6 267.6 50.6 274 57ZM233.2 185C238.8 175.4 242 165 242 153C242 117.8 213.2 89 178 89C142.8 89 114 117.8 114 153C114 165 117.2 175.4 122.8 185H233.2Z" fill="#FF943E"/>
<path d="M214.8 100.2C222 110.6 226 123.4 226 137C226 149 222.8 159.4 217.2 169H116.4C118 174.6 120.4 180.2 122.8 185H233.2C238.8 175.4 242 165 242 153C242 131.4 230.8 112.2 214.8 100.2Z" fill="#EA8839"/>
<path d="M178 321C173.2 321 170 317.8 170 313V217C170 212.2 173.2 209 178 209C182.8 209 186 212.2 186 217V313C186 317.8 182.8 321 178 321Z" fill="#4B86C5"/>
<path d="M210 257C207.6 257 206 256.2 204.4 254.6L172.4 222.6C169.2 219.4 169.2 214.6 172.4 211.4C175.6 208.2 180.4 208.2 183.6 211.4L215.6 243.4C218.8 246.6 218.8 251.4 215.6 254.6C214 256.2 212.4 257 210 257Z" fill="#4B86C5"/>
<path d="M146 257C143.6 257 142 256.2 140.4 254.6C137.2 251.4 137.2 246.6 140.4 243.4L172.4 211.4C175.6 208.2 180.4 208.2 183.6 211.4C186.8 214.6 186.8 219.4 183.6 222.6L151.6 254.6C150 256.2 148.4 257 146 257Z" fill="#4B86C5"/>
</svg>
