<svg width="356" height="339" viewBox="0 0 356 339" fill="none" xmlns="http://www.w3.org/2000/svg">
<path d="M178 63C169.2 63 162 55.8 162 47V31C162 22.2 169.2 15 178 15C186.8 15 194 22.2 194 31V47C194 55.8 186.8 63 178 63ZM266 151C266 142.2 273.2 135 282 135H298C306.8 135 314 142.2 314 151C314 159.8 306.8 167 298 167H282C273.2 167 266 159.8 266 151ZM42 151C42 142.2 49.2 135 58 135H74C82.8 135 90 142.2 90 151C90 159.8 82.8 167 74 167H58C49.2 167 42 159.8 42 151ZM82 55C88.4 48.6 98 48.6 104.4 55L115.6 66.2C122 72.6 122 82.2 115.6 88.6C109.2 95 99.6 95 93.2 88.6L82 77.4C75.6 71 75.6 61.4 82 55ZM274 55C280.4 61.4 280.4 71 274 77.4L262.8 88.6C256.4 95 246.8 95 240.4 88.6C234 82.2 234 72.6 240.4 66.2L251.6 55C258 48.6 267.6 48.6 274 55ZM233.2 183C238.8 173.4 242 163 242 151C242 115.8 213.2 87 178 87C142.8 87 114 115.8 114 151C114 163 117.2 173.4 122.8 183H233.2Z" fill="#FF943E"/>
<path d="M214.8 98.2C222 108.6 226 121.4 226 135C226 147 222.8 157.4 217.2 167H116.4C118 172.6 120.4 178.2 122.8 183H233.2C238.8 173.4 242 163 242 151C242 129.4 230.8 110.2 214.8 98.2Z" fill="#EA8839"/>
<path d="M178 320C173.2 320 170 316.8 170 312V216C170 211.2 173.2 208 178 208C182.8 208 186 211.2 186 216V312C186 316.8 182.8 320 178 320Z" fill="#4B86C5"/>
<path d="M178 322C175.6 322 174 321.2 172.4 319.6L140.4 287.6C137.2 284.4 137.2 279.6 140.4 276.4C143.6 273.2 148.4 273.2 151.6 276.4L183.6 308.4C186.8 311.6 186.8 316.4 183.6 319.6C182 321.2 180.4 322 178 322Z" fill="#4B86C5"/>
<path d="M178 322C175.6 322 174 321.2 172.4 319.6C169.2 316.4 169.2 311.6 172.4 308.4L204.4 276.4C207.6 273.2 212.4 273.2 215.6 276.4C218.8 279.6 218.8 284.4 215.6 287.6L183.6 319.6C182 321.2 180.4 322 178 322Z" fill="#4B86C5"/>
</svg>

