<svg width="34" height="43" viewBox="0 0 34 43" fill="none" xmlns="http://www.w3.org/2000/svg">
<path d="M17.1257 19C17.9497 19 18.7553 18.7556 19.4405 18.2978C20.1257 17.84 20.6598 17.1892 20.9751 16.4279C21.2905 15.6665 21.373 14.8287 21.2123 14.0205C21.0515 13.2122 20.6546 12.4698 20.0719 11.8871C19.4892 11.3044 18.7468 10.9075 17.9385 10.7467C17.1303 10.586 16.2925 10.6685 15.5311 10.9839C14.7698 11.2992 14.119 11.8333 13.6612 12.5185C13.2034 13.2037 12.959 14.0093 12.959 14.8334C12.959 15.9384 13.398 16.9982 14.1794 17.7796C14.9608 18.561 16.0206 19 17.1257 19ZM15.6465 33.3959C15.8402 33.5911 16.0706 33.7461 16.3244 33.8519C16.5783 33.9576 16.8506 34.0121 17.1257 34.0121C17.4007 34.0121 17.673 33.9576 17.9269 33.8519C18.1807 33.7461 18.4111 33.5911 18.6048 33.3959L27.1256 24.8542C29.1047 22.8762 30.4527 20.3556 30.9991 17.6114C31.5456 14.8672 31.2659 12.0225 30.1954 9.43729C29.125 6.85205 27.3119 4.64233 24.9854 3.08764C22.659 1.53295 19.9237 0.703125 17.1257 0.703125C14.3276 0.703125 11.5923 1.53295 9.26588 3.08764C6.93945 4.64233 5.12635 6.85205 4.0559 9.43729C2.98545 12.0225 2.70575 14.8672 3.25217 17.6114C3.79859 20.3556 5.14658 22.8762 7.12565 24.8542L15.6465 33.3959ZM7.18815 13.875C7.33049 12.3896 7.80277 10.9548 8.57049 9.67526C9.33822 8.39572 10.382 7.30379 11.6256 6.47919C13.2594 5.40647 15.1712 4.83493 17.1257 4.83493C19.0801 4.83493 20.9919 5.40647 22.6257 6.47919C23.861 7.30096 24.8989 8.38627 25.6647 9.65707C26.4305 10.9279 26.9051 12.3526 27.0545 13.8287C27.2039 15.3049 27.0244 16.7958 26.5288 18.1943C26.0331 19.5928 25.2338 20.864 24.1882 21.9167L17.1257 28.9792L10.0632 21.9167C9.01632 20.8743 8.21508 19.6115 7.71774 18.2204C7.22041 16.8293 7.03949 15.3449 7.18815 13.875ZM31.709 38.1667H2.54232C1.98978 38.1667 1.45988 38.3862 1.06918 38.7769C0.678478 39.1676 0.458984 39.6975 0.458984 40.25C0.458984 40.8026 0.678478 41.3325 1.06918 41.7232C1.45988 42.1139 1.98978 42.3334 2.54232 42.3334H31.709C32.2615 42.3334 32.7914 42.1139 33.1821 41.7232C33.5728 41.3325 33.7923 40.8026 33.7923 40.25C33.7923 39.6975 33.5728 39.1676 33.1821 38.7769C32.7914 38.3862 32.2615 38.1667 31.709 38.1667Z" fill="white"/>
</svg>
